<?xml version="1.0" encoding="UTF-8" standalone="no"?>
<!-- Created with Inkscape (http://www.inkscape.org/) -->

<svg
   width="600mm"
   height="350mm"
   viewBox="0 0 599.99998 350"
   version="1.1"
   id="svg5"
   inkscape:version="1.3 (0e150ed, 2023-07-21)"
   sodipodi:docname="vkr_mk18_promo.svg"
   xml:space="preserve"
   inkscape:export-filename="deagle_promo.png"
   inkscape:export-xdpi="171.044"
   inkscape:export-ydpi="171.044"
   xmlns:inkscape="http://www.inkscape.org/namespaces/inkscape"
   xmlns:sodipodi="http://sodipodi.sourceforge.net/DTD/sodipodi-0.dtd"
   xmlns:xlink="http://www.w3.org/1999/xlink"
   xmlns="http://www.w3.org/2000/svg"
   xmlns:svg="http://www.w3.org/2000/svg"><sodipodi:namedview
     id="namedview7"
     pagecolor="#ffffff"
     bordercolor="#666666"
     borderopacity="1.0"
     inkscape:pageshadow="2"
     inkscape:pageopacity="0.0"
     inkscape:pagecheckerboard="0"
     inkscape:document-units="mm"
     showgrid="false"
     inkscape:zoom="0.1338308"
     inkscape:cx="373.60608"
     inkscape:cy="1031.1528"
     inkscape:window-width="1440"
     inkscape:window-height="765"
     inkscape:window-x="0"
     inkscape:window-y="25"
     inkscape:window-maximized="1"
     inkscape:current-layer="layer1"
     inkscape:showpageshadow="2"
     inkscape:deskcolor="#d1d1d1"
     showguides="false" /><defs
     id="defs2"><linearGradient
       id="linearGradient21"
       inkscape:collect="always"><stop
         style="stop-color:#cc5e5e;stop-opacity:1;"
         offset="0"
         id="stop20" /><stop
         style="stop-color:#ab3a3a;stop-opacity:1;"
         offset="1"
         id="stop21" /></linearGradient><rect
       x="1783.0041"
       y="166.20152"
       width="399.89187"
       height="186.08357"
       id="rect20" /><rect
       x="1283.1631"
       y="481.82739"
       width="926.05277"
       height="418.74717"
       id="rect19" /><rect
       x="1250.9224"
       y="452.13235"
       width="771.67293"
       height="605.05889"
       id="rect18" /><rect
       x="1275.3193"
       y="1210.9402"
       width="787.87756"
       height="758.80787"
       id="rect17" /><rect
       x="1503.431"
       y="183.71102"
       width="1061.0249"
       height="330.10704"
       id="rect15" /><rect
       x="91.149288"
       y="-820.34359"
       width="2557.5418"
       height="546.89573"
       id="rect3" /><linearGradient
       id="linearGradient2"
       inkscape:collect="always"><stop
         style="stop-color:#5ea0cc;stop-opacity:1;"
         offset="0"
         id="stop2" /><stop
         style="stop-color:#3a7dab;stop-opacity:1;"
         offset="1"
         id="stop3" /></linearGradient><rect
       x="418.71599"
       y="1322.8346"
       width="1911.4359"
       height="379.8904"
       id="rect2" /><rect
       x="446.43755"
       y="755.54835"
       width="1154.5051"
       height="437.73334"
       id="rect14" /><clipPath
       clipPathUnits="userSpaceOnUse"
       id="clipPath54"><path
         id="path54"
         style="stroke-width:0.0999999;stroke-linecap:square;paint-order:markers fill stroke;stop-color:#000000"
         d="m 1691.1994,-792.32001 h 1634.8919 v 92.82806 H 1691.1994 Z" /></clipPath><clipPath
       clipPathUnits="userSpaceOnUse"
       id="clipPath15"><rect
         style="fill:none;stroke:#000000;stroke-linecap:butt;stroke-linejoin:bevel;paint-order:stroke markers fill;stop-color:#000000"
         id="rect15-7"
         width="45.034248"
         height="38.955639"
         x="262.48285"
         y="121.00073" /></clipPath><inkscape:path-effect
       effect="fill_between_many"
       method="originald"
       linkedpaths="#path34,0,1"
       id="path-effect34"
       is_visible="true"
       lpeversion="0"
       join="true"
       close="true"
       autoreverse="true" /><clipPath
       clipPathUnits="userSpaceOnUse"
       id="clipPath18"><path
         id="path18"
         style="display:block;fill:#7c7c7c;fill-opacity:1;stroke:none;stroke-width:2;stroke-linecap:butt;stroke-linejoin:round;stroke-dasharray:none;stroke-opacity:1"
         d="m 153.59913,-83.812388 -3.61735,3.154844 -2.40761,-0.0088 c -1.34656,-0.204305 -2.29712,-1.317812 -3.31246,-2.14612 h -13.35319 v 2.200381 H 112.76803 81.208197 v -1.308962 l -3.028754,-1.804025 c -0.730348,-0.09707 -0.90537,0.08005 -0.971,0.866095 v 2.246892 h -2.300118 v 6.340697 l 4.014743,7.959204 h 7.185091 29.447811 c 1.76143,1.117558 3.44887,2.326802 4.88808,3.848346 1.66435,1.957232 2.16168,5.662877 1.11414,8.841838 0.23521,0.294005 0.40656,0.472813 0.79065,0.574641 h 10.53114 c 1.63957,0.0013 2.88577,-1.311839 4.5806,0.291454 1.89445,1.269701 3.39776,10.078691 3.99252,16.436724 0.12464,0.566679 -0.41557,1.525915 -0.59118,2.054138 l -0.96066,2.69286 c 1.47419,1.697225 23.54263,1.423702 24.28895,-0.243396 l 5.3e-4,-2.545582 c 0.008,-2.298944 0.28081,-4.561536 -0.81442,-6.179468 -3.04458,-4.470765 -4.09201,-9.834113 -5.53196,-14.965495 -0.63051,-2.868401 -0.22576,-4.766924 0.8108,-6.023404 2.02891,-2.459384 6.47909,-2.459281 10.32857,-2.459281 1.29315,0.0085 1.65041,0.129876 2.26911,-0.077 0.51498,-0.172194 0.86447,-0.634709 0.85576,-1.131197 -0.008,-0.447802 -0.32033,-0.93013 -0.83199,-1.131713 -0.34693,-0.136687 -1.80546,-0.164412 -2.31562,-0.178284 -3.15248,-0.12092 -4.91266,-0.383641 -5.98103,-1.396815 -0.44827,-0.445749 -0.61998,-0.905423 -0.79013,-1.488797 l -0.34468,-1.440739 c 0.60127,-2.004748 1.22422,-4.08211 2.81895,-5.553149 0.68691,-1.668251 -0.6656,-1.742456 -0.90279,-1.717725 -1.42483,0.545679 -2.85843,1.023125 -4.40955,1.033529 l -3.54294,-3.565158 -0.80046,-0.0031 v -3.173447 z"
         sodipodi:nodetypes="cccccccccccccccccccccccccccccscscsccccccccccc" /></clipPath><inkscape:path-effect
       effect="powerclip"
       id="path-effect18"
       is_visible="true"
       lpeversion="1"
       inverse="true"
       flatten="false"
       hide_clip="false"
       message="Use fill-rule evenodd on &lt;b&gt;fill and stroke&lt;/b&gt; dialogue if no flatten result after convert clip to paths." /><rect
       x="418.716"
       y="1322.8346"
       width="1911.4359"
       height="379.89041"
       id="rect2-1" /><radialGradient
       inkscape:collect="always"
       xlink:href="#linearGradient2"
       id="radialGradient3"
       cx="245.1344"
       cy="478.46774"
       fx="245.1344"
       fy="478.46774"
       r="300"
       gradientTransform="matrix(0.21852165,-0.58709325,0.54669189,0.20348388,-22.945868,195.55453)"
       gradientUnits="userSpaceOnUse" /><rect
       x="91.149284"
       y="-820.34357"
       width="2557.5417"
       height="546.89575"
       id="rect3-3" /><rect
       x="91.149284"
       y="-820.34357"
       width="2557.5417"
       height="546.89575"
       id="rect3-0" /><rect
       x="91.149284"
       y="-820.34357"
       width="2557.5417"
       height="546.89575"
       id="rect3-00" /><rect
       x="1503.431"
       y="183.71101"
       width="1741.6776"
       height="369.56516"
       id="rect15-6" /><rect
       x="1283.1631"
       y="481.82739"
       width="926.0528"
       height="418.74716"
       id="rect19-7" /><radialGradient
       inkscape:collect="always"
       xlink:href="#linearGradient21"
       id="radialGradient3-0"
       cx="245.1344"
       cy="478.46774"
       fx="245.1344"
       fy="478.46774"
       r="300"
       gradientTransform="matrix(0.21852165,-0.58709325,0.54669189,0.20348388,-22.945944,195.5547)"
       gradientUnits="userSpaceOnUse" /><rect
       x="0"
       y="-177.97614"
       width="882.46503"
       height="177.97614"
       id="rect1-0-3" /><rect
       x="0"
       y="-177.97614"
       width="882.46503"
       height="177.97614"
       id="rect1-0-9" /></defs><g
     inkscape:label="Layer 1"
     inkscape:groupmode="layer"
     id="layer1"><rect
       style="fill:url(#radialGradient3);stroke-width:17.5;stroke-linecap:round;stroke-linejoin:round;stroke-opacity:0.15;fill-opacity:1"
       id="rect1"
       width="600"
       height="349.99997"
       x="0"
       y="0" /><path
       id="rect1-8"
       style="fill:url(#radialGradient3-0);fill-opacity:1;stroke-width:17.5;stroke-linecap:round;stroke-linejoin:round;stroke-opacity:0.15"
       d="M 351.73298,1.75e-4 251.22894,136.65314 344.75201,205.78172 238.17486,350 H 600 V 1.75e-4 Z"
       sodipodi:nodetypes="ccccccc" /><text
       xml:space="preserve"
       transform="scale(0.26458333)"
       id="text12"
       style="font-style:normal;font-weight:normal;font-size:40px;line-height:1.25;font-family:sans-serif;white-space:pre;shape-inside:url(#rect14);display:inline;fill:#000000;fill-opacity:1;stroke:none" /><g
       id="g19"
       transform="translate(-143.92862,212.17705)"><text
         xml:space="preserve"
         transform="matrix(0.26458333,0,0,0.26458333,-157.51218,9.555001)"
         id="text14-7"
         style="font-style:normal;font-variant:normal;font-weight:normal;font-stretch:normal;font-size:133.333px;line-height:1.25;font-family:'Source Sans Pro';-inkscape-font-specification:'Source Sans Pro';white-space:pre;shape-inside:url(#rect15-6);display:inline;fill:#f0f0f0;fill-opacity:1;stroke:none"><tspan
           x="1503.4316"
           y="300.37731"
           id="tspan1">TESTING 2 NEW WEAPONS</tspan></text><rect
         style="fill:#f0f0f0;fill-opacity:1;stroke:none;stroke-width:23.8239;stroke-linecap:round;stroke-linejoin:round;stroke-dasharray:none;stroke-opacity:1"
         id="rect16"
         width="413.28094"
         height="5"
         x="237.28815"
         y="96.125351"
         ry="0" /></g><text
       xml:space="preserve"
       transform="scale(0.26458333)"
       id="text16"
       style="font-style:normal;font-weight:normal;font-size:40px;line-height:1.25;font-family:sans-serif;white-space:pre;shape-inside:url(#rect17);display:inline;fill:#000000;fill-opacity:1;stroke:none" /><text
       xml:space="preserve"
       transform="matrix(0.26458333,0,-0.06596803,0.26458333,47.090718,-29.794878)"
       id="text19"
       style="font-style:normal;font-variant:normal;font-weight:normal;font-stretch:normal;font-size:133.333px;line-height:1.25;font-family:'Bebas Neue';-inkscape-font-specification:'Bebas Neue';white-space:pre;shape-inside:url(#rect20);display:inline;fill:#f0f0f0;fill-opacity:1;stroke:none"><tspan
         x="1783.0039"
         y="282.86754"
         id="tspan2">REKOIL</tspan></text><g
       id="g3"
       transform="matrix(0.47289476,-0.22464571,0.22464571,0.47289476,-5.4743378,162.43585)"><path
         id="rect17-0-4-8-4"
         style="color:#000000;fill:none;stroke:#333333;stroke-width:29;stroke-linecap:round;stroke-linejoin:round;stroke-dasharray:none;stroke-opacity:0.1"
         d="m 266.84796,75.786661 -12.08402,5.2e-4 a 15.0015,15.0015 0 0 0 -8.75967,3.26956 15.0015,15.0015 0 0 0 -3.32228,-0.89296 h -13.594 a 15.0015,15.0015 0 0 0 -12.08764,6.59959 15.0015,15.0015 0 0 0 -5.32422,-1.42575 h -30.96297 a 15.0015,15.0015 0 0 0 -15.00012,15.00012 v 19.634969 a 15.0015,15.0015 0 0 0 6.4885,11.97653 H 63.228863 a 15.0015,15.0015 0 0 0 -14.04101,9.72448 c -3.0262,8.05568 -2.06541,12.27244 -1.85156,19.36936 0.21384,7.09692 0.8851,15.45205 1.84536,24.30446 1.91982,17.69828 4.94639,37.10153 8.16023,50.88268 1.97197,8.50901 8.70627,11.89509 13.58832,12.87105 4.88483,0.97651 10.83341,0.64141 16.21089,-4.82813 a 15.0015,15.0015 0 0 0 1.82211,-2.25361 c 0,0 5.8218,-8.82118 11.658207,-17.66249 0.20184,-0.30578 0.35491,-0.53635 0.55655,-0.84181 a 15.0015,15.0015 0 0 0 9.34,-1.70067 l 19.66805,-11.53366 h 24.09724 a 15.0015,15.0015 0 0 0 15.00012,-14.9996 v -9.16637 h 0.20102 a 15.0015,15.0015 0 0 0 13.89683,12.10934 l -28.24634,40.74428 0.092,-0.12867 c -3.73237,5.26529 -4.37089,10.13922 -2.93729,15.95665 1.43361,5.81741 7.34434,12.29496 14.01517,14.00018 a 15.0015,15.0015 0 0 0 0.32453,0.078 l 28.63442,6.64869 -0.5581,-0.14056 c 7.39459,2.01935 16.73062,-0.75883 21.36872,-6.70709 3.29525,-4.22606 5.15694,-10.46554 3.35742,-16.49822 l 14.42806,-24.65637 c 0.17877,-0.007 0.38051,-0.0172 0.47852,-0.0176 0.51771,-0.002 1.24701,-0.003 2.07791,-0.004 h 5.47874 12.38839 c 0.78453,4.60465 1.96635,9.23415 3.33623,14.06065 -0.53745,2.83266 -0.52804,5.78509 0.28887,8.68164 2.86661,10.16428 13.93553,16.36298 24.09982,13.49633 l 34.88676,-9.83971 c 10.16422,-2.86662 16.36247,-13.93553 13.49582,-24.09982 -0.74528,-2.64259 -2.06388,-4.99667 -3.75791,-7.01353 -1.47994,-3.76193 -2.13322,-6.37026 -2.39624,-9.01547 a 15.0015,15.0015 0 0 0 5.14439,-10.5761 v -5.83995 a 15.0015,15.0015 0 0 0 -2.08411,-6.65076 15.0015,15.0015 0 0 0 4.04317,0.12144 l 8.55451,-2.44326 h 17.2558 a 15.0015,15.0015 0 0 0 4.79919,7.20111 c -1.0977,15.17873 -0.58149,32.98801 1.53324,45.77499 a 15.0015,15.0015 0 0 0 14.79858,12.55324 h 12.68759 a 15.0015,15.0015 0 0 0 14.80272,-12.5765 c 2.0865,-12.73859 2.60777,-30.59976 1.52135,-45.7693 a 15.0015,15.0015 0 0 0 4.78111,-7.18354 h 16.34008 a 15.0015,15.0015 0 0 0 10.39833,-4.90823 h 20.56257 a 15.0015,15.0015 0 0 0 10.39834,-4.90822 h 38.34184 a 15.0015,15.0015 0 0 0 5.63273,1.50947 h 24.16597 a 15.0015,15.0015 0 0 0 15.00012,-15.00012 v -13.59349 a 15.0015,15.0015 0 0 0 -15.00012,-15.00012 h -24.16597 a 15.0015,15.0015 0 0 0 -5.63273,1.50999 h -33.90801 l -0.17208,-10.27534 v -0.008 c -0.11786,-10.6965 -5.54557,-17.36887 -16.07034,-19.51354 -1.51739,-0.30938 -3.02093,-0.43177 -4.43952,-0.40617 a 15.0015,15.0015 0 0 0 -0.004,0 c -6.6e-4,1e-5 -0.001,-1e-5 -0.002,0 -6.34042,0.11653 -11.82814,3.05875 -15.54479,7.45277 a 15.0015,15.0015 0 0 0 -0.17208,0.20722 l -0.0408,0.0507 a 15.0015,15.0015 0 0 0 -0.16433,0.20308 l -3.42356,4.34961 a 15.0015,15.0015 0 0 0 -5.75986,-1.54254 h -81.56091 a 15.0015,15.0015 0 0 0 -13.10153,7.91218 l -1.36115,-0.38913 9.43766,-19.02933 A 15.0015,15.0015 0 0 0 328.3907,83.338021 h -25.20518 a 15.0015,15.0015 0 0 0 -10.6624,-5.17384 h -13.59348 a 15.0015,15.0015 0 0 0 -3.32435,0.89245 15.0015,15.0015 0 0 0 -8.7576,-3.26957 z m -12.20649,14.93087 h 12.0835 v 10.570929 h -0.0393 c -0.16047,-0.14169 -0.34696,-0.25119 -0.51728,-0.38137 0.23698,0.18108 0.47122,0.36474 0.68885,0.56792 -0.0612,-0.0572 -0.10724,-0.12902 -0.17002,-0.18448 h 12.11968 v 13.59297 h -12.12123 c 0.0618,-0.0546 0.10717,-0.12518 0.16744,-0.18139 -1.61719,1.50807 -3.77376,2.44688 -6.16965,2.44688 -2.39418,0 -4.54921,-0.93815 -6.16604,-2.44429 0.0593,0.0553 0.10354,0.12513 0.16434,0.1788 h -12.12278 v 11.44064 h 36.24843 V 93.096201 h 13.59349 v 8.194329 h 9.33896 v -3.022559 h 26.52913 l -9.74049,19.636019 h -16.78864 v -3.02049 h -9.33896 v 11.44064 8.89093 h 26.38857 v 35.8066 c -0.0272,7.15646 -7.33661,1.87217 -7.55199,11.02052 v 12.11812 l 3.02048,1.12552 v 5.8384 l -5.40742,0.9896 c -0.0346,12.37574 0.53725,16.14342 4.23695,25.49457 l -40.43991,10.40815 c -3.29486,-11.19056 -5.01325,-18.66398 -4.60282,-28.43289 l -4.62865,0.84698 10e-4,0.0129 -38.27053,-0.0129 -22.03484,37.6592 c -1.34935,2.07376 0.58081,4.78666 1.1958,5.24826 1.90756,2.00012 -0.47289,6.95255 -5.77329,5.50509 l -28.6365,-6.64766 c -3.75326,-0.95942 -3.8407,-4.93898 -2.55695,-6.74998 l 30.63172,-44.18851 c 3.38102,-5.02397 2.90035,-8.31869 3.00861,-11.36727 l -5.2e-4,-5.1e-4 c 0.15466,-6.1674 -4.12577,-8.57384 -9.8888,-8.63875 h -7.47913 V 169.0466 h -9.06147 v 5.2e-4 h -20.39147 v 10.57248 h 5.2e-4 v 13.59348 h -28.17089 l -23.18153,13.59297 v -19.33267 l 14.5929,-6.07043 -14.59342,6.06992 v 7.53649 l -3.075257,1.22421 c -0.12475,0.17236 -23.41046,35.45468 -23.41046,35.45468 -1.25472,1.2762 -4.11197,0.72356 -4.49068,-0.91622 -5.93704,-25.4496 -12.10886,-76.88189 -8.72454,-85.89088 H 174.55075 v 24.16545 h 5.1e-4 v -24.16545 h 9.06147 l 17.36845,-9.66608 h 11.37036 v -8.89093 h 16.61397 V 114.8835 h -17.41134 v 3.02049 H 180.59172 V 98.267971 h 30.96245 v 3.022559 h 17.41134 V 93.096201 H 242.559 v 8.194329 h 12.11967 c -0.0634,0.056 -0.10975,0.12879 -0.17156,0.18655 0.21652,-0.20229 0.45004,-0.38494 0.68575,-0.56534 -0.16816,0.12873 -0.35256,0.23677 -0.51108,0.37672 h -0.0403 z m 0.55139,10.194209 c 0.19839,-0.15189 0.39214,-0.30903 0.60306,-0.44442 -0.21161,0.13565 -0.40407,0.29211 -0.60306,0.44442 z m 0.60306,-0.44442 c 0.27248,-0.17467 0.5647,-0.3183 0.85628,-0.46353 -0.29198,0.14563 -0.58344,0.28841 -0.85628,0.46353 z m 0.85628,-0.46353 c 0.20987,-0.104689 0.41212,-0.222069 0.63097,-0.310579 -0.21951,0.0886 -0.42049,0.20573 -0.63097,0.310579 z m 0.63097,-0.310579 c 0.34681,-0.13994 0.71371,-0.23699 1.08055,-0.33383 -0.36724,0.0972 -0.73341,0.19342 -1.08055,0.33383 z m 1.08055,-0.33383 c 0.1874,-0.0496 0.36556,-0.12041 0.55759,-0.15813 -0.19234,0.0377 -0.36988,0.10858 -0.55759,0.15813 z m 0.55759,-0.15813 c 0.57034,-0.11167 1.15816,-0.17673 1.76217,-0.17673 0.60452,0 1.1924,0.0649 1.7632,0.17673 -0.57073,-0.1121 -1.15807,-0.17777 -1.76269,-0.17777 -0.60438,0 -1.1921,0.0657 -1.76268,0.17777 z m 3.52537,0 c 0.18677,0.0367 0.3602,0.10556 0.5426,0.15348 -0.18273,-0.0479 -0.35548,-0.11681 -0.5426,-0.15348 z m 0.5426,0.15348 c 0.37307,0.0978 0.74573,0.19713 1.09812,0.33951 -0.35265,-0.14275 -0.72473,-0.24141 -1.09812,-0.33951 z m 1.09812,0.33951 c 0.21368,0.0865 0.41086,0.20141 0.61599,0.30334 -0.20562,-0.10205 -0.40178,-0.21678 -0.61599,-0.30334 z m 0.61599,0.30334 c 0.2963,0.147069 0.59308,0.293339 0.86971,0.470779 -0.27712,-0.17797 -0.57287,-0.32327 -0.86971,-0.470779 z m 0.86971,0.470779 c 0.20818,0.13369 0.39932,0.28893 0.59531,0.43873 -0.19658,-0.15021 -0.38644,-0.30476 -0.59531,-0.43873 z m -11.06599,1.00872 c -0.26366,0.24633 -0.4976,0.51708 -0.73019,0.79323 0.23208,-0.27535 0.46725,-0.54751 0.73019,-0.79323 z m -0.73019,0.79323 c -0.15837,0.1879 -0.32377,0.3658 -0.46664,0.56638 0.14232,-0.19986 0.30892,-0.37912 0.46664,-0.56638 z m -0.46664,0.56638 c -0.21529,0.30233 -0.39099,0.62899 -0.56844,0.95756 0.17721,-0.32778 0.35357,-0.65589 0.56844,-0.95756 z m -0.56844,0.95756 c -0.11317,0.20933 -0.24171,0.40634 -0.33848,0.62529 0.0965,-0.21839 0.2257,-0.41647 0.33848,-0.62529 z m -0.33848,0.62529 c -0.16425,0.37185 -0.27687,0.7673 -0.39067,1.16375 0.11378,-0.39589 0.22654,-0.7924 0.39067,-1.16375 z m -0.39067,1.16375 c -0.0582,0.20246 -0.1418,0.39238 -0.18604,0.60048 0.0441,-0.20775 0.12801,-0.39835 0.18604,-0.60048 z m -0.18604,0.60048 c -0.12617,0.5939 -0.19509,1.20867 -0.19947,1.8402 0.004,-0.63127 0.0733,-1.2466 0.19947,-1.8402 z m -0.19947,1.8402 c -1.5e-4,0.0216 -0.007,0.0414 -0.007,0.063 0,0.021 0.007,0.0401 0.007,0.061 -1.4e-4,-0.0209 -0.006,-0.0401 -0.006,-0.061 0,-0.0216 0.006,-0.0415 0.006,-0.063 z m 0,0.12402 c 0.004,0.63324 0.0738,1.24944 0.20051,1.84485 -0.12685,-0.59509 -0.19624,-1.21168 -0.20051,-1.84485 z m 0.20051,1.84485 c 0.0425,0.19944 0.12242,0.38143 0.17776,0.57568 -0.0551,-0.19399 -0.13539,-0.37654 -0.17776,-0.57568 z m 0.17776,0.57568 c 0.11537,0.40583 0.23183,0.80944 0.39998,1.18959 -0.16813,-0.3795 -0.28454,-0.78444 -0.39998,-1.18959 z m 0.39998,1.18959 c 0.0928,0.20955 0.21611,0.39819 0.32401,0.59893 -0.10743,-0.20028 -0.23155,-0.38989 -0.32401,-0.59893 z m 0.32401,0.59893 c 0.1823,0.33985 0.36489,0.67666 0.58756,0.98857 -0.22237,-0.31115 -0.40538,-0.64962 -0.58756,-0.98857 z m 0.58756,0.98857 c 0.13549,0.18958 0.29245,0.35763 0.44183,0.53588 -0.14875,-0.17775 -0.30688,-0.34685 -0.44183,-0.53588 z m 0.44183,0.53588 c 0.24066,0.28756 0.48442,0.56779 0.75861,0.82321 -0.27343,-0.25471 -0.51845,-0.53664 -0.75861,-0.82321 z m 38.64209,1.00201 v -13.59297 h -5.2e-4 v 13.59297 z m -25.54779,-0.18139 c 0.27074,-0.25247 0.51076,-0.53005 0.74879,-0.8139 -0.2375,0.28293 -0.47879,0.5621 -0.74879,0.8139 z m 0.74879,-0.8139 c 0.15198,-0.18106 0.31144,-0.3519 0.44906,-0.54467 -0.1371,0.19217 -0.29769,0.36416 -0.44906,0.54467 z m 0.44906,-0.54467 c 0.22142,-0.31034 0.403,-0.64541 0.58447,-0.9834 -0.18128,0.33716 -0.3634,0.67376 -0.58447,0.9834 z m 0.58447,-0.9834 c 0.10846,-0.20175 0.2323,-0.39139 0.32556,-0.60203 -0.0929,0.2101 -0.21751,0.40077 -0.32556,0.60203 z m 0.32556,-0.60203 c 0.16815,-0.38015 0.2846,-0.78376 0.39997,-1.18959 -0.11534,0.40515 -0.23196,0.81008 -0.39997,1.18959 z m 0.39997,-1.18959 c 0.0553,-0.19425 0.13529,-0.37625 0.17777,-0.57568 -0.0424,0.19914 -0.12262,0.38169 -0.17777,0.57568 z m 0.17777,-0.57568 c 0.13086,-0.61504 0.20671,-1.25065 0.20671,-1.90583 0,0.65512 -0.0758,1.29108 -0.20671,1.90583 z m 0.20671,-1.90583 c 0,-0.65517 -0.0758,-1.29079 -0.20671,-1.90582 0.13086,0.61471 0.20671,1.2509 0.20671,1.90582 z m -0.20671,-1.90582 c -0.0427,-0.20053 -0.12315,-0.38349 -0.1788,-0.57878 0.0555,0.19496 0.13621,0.37861 0.1788,0.57878 z m -0.1788,-0.57878 c -0.11505,-0.40419 -0.23049,-0.80675 -0.39791,-1.18546 0.16729,0.37822 0.28289,0.78181 0.39791,1.18546 z m -0.39791,-1.18546 c -0.0949,-0.21462 -0.22158,-0.40749 -0.33228,-0.61288 0.11034,0.2049 0.23763,0.39879 0.33228,0.61288 z m -0.33228,-0.61288 c -0.17923,-0.33284 -0.35714,-0.66348 -0.57516,-0.96945 0.21759,0.30531 0.39619,0.6374 0.57516,0.96945 z m -0.57516,-0.96945 c -0.14098,-0.19782 -0.30436,-0.37314 -0.46043,-0.55862 0.15544,0.18485 0.31998,0.36151 0.46043,0.55862 z m -0.46043,-0.55862 c -0.23459,-0.27898 -0.47065,-0.55239 -0.73691,-0.80099 0.26553,0.24798 0.50284,0.52282 0.73691,0.80099 z m 186.08063,18.4397 c 0.3879,-0.007 0.77952,0.0263 1.17202,0.10645 2.0938,0.42666 4.04233,2.70048 4.06693,4.98575 l 0.34003,20.20548 v 4.90874 h 54.37291 v -1.5105 h 24.16597 v 13.59349 h -24.16597 v -1.5105 h -54.37291 v 4.90874 h -30.96245 v 4.90874 h -90.62186 l -10.57248,3.02101 v -3.776 h -8.30698 v -28.69695 h 8.30698 v -3.776 l 10.57248,3.02049 h 9.06198 v -9.66608 h 81.55988 v 9.66608 4.90874 h 2.93006 c 0.1203,-0.26984 0.27273,-0.52404 0.45423,-0.75706 l 17.58756,-22.34696 0.0419,-0.0517 c 1.0981,-1.29823 2.68916,-2.11126 4.36976,-2.14199 z m 9.56169,10.36629 h 1.57458 l 0.0269,1.46296 a 15.0015,15.0015 0 0 0 -1.21491,-0.32453 15.0015,15.0015 0 0 0 -0.38654,-1.13843 z m -13.455,5.09788 -7.42797,9.83351 h 7.61039 z m -78.88407,35.34151 h 27.18645 v 10.57249 h -27.18645 z m -293.315947,5.92677 c -2.09173,0 -3.776,1.68426 -3.776,3.776 0,2.09174 1.68427,3.776 3.776,3.776 h 5.0555 c -0.45249,-1.17559 -0.74827,-2.41453 -0.74827,-3.70727 0,-1.34241 0.30889,-2.63043 0.79478,-3.84473 z m 10.55233,0 c 0.48588,1.21429 0.79426,2.50233 0.79426,3.84473 0,1.22687 -0.34779,2.38551 -0.75396,3.51348 l 0.66405,-0.26355 a 15.0015,15.0015 0 0 0 -0.1385,0.45734 h 4.2907 c 2.09176,0 3.77599,-1.68426 3.77599,-3.776 0,-2.09174 -1.68423,-3.776 -3.77599,-3.776 z m 290.025707,5.01934 h 12.68708 c 2.2536,13.31226 2.2416,40.68738 0,54.3729 h -12.68708 c -2.2745,-13.75306 -2.2805,-40.90762 0,-54.3729 z M 233.87116,225.5 h 0.0961 c -0.0801,0.004 -0.0342,0.002 -0.0977,0.006 z m 78.16732,3.03341 c 1.75249,0.21855 3.28306,1.45707 3.79408,3.26905 0.68138,2.41598 -0.71509,4.90949 -3.13107,5.59087 l -34.88779,9.8392 c -2.41598,0.68137 -4.90951,-0.71511 -5.59088,-3.13108 -0.68138,-2.41599 0.7151,-4.9095 3.13108,-5.59087 l 34.88779,-9.8392 c 0.604,-0.17034 1.21263,-0.21082 1.79679,-0.13797 z m -98.60483,12.87673 c 2.41456,1.81232 2.28227,2.11953 2.61947,2.62671 -0.27164,-0.32429 -0.46533,-0.6651 -0.76791,-0.98236 a 15.0015,15.0015 0 0 0 -1.85156,-1.64435 z" /><g
         id="g2"
         transform="translate(-123.86682,-448.26444)"><path
           id="rect17-0-4-8"
           style="color:#000000;fill:#333333;stroke-linecap:round;stroke-linejoin:round;-inkscape-stroke:none"
           d="m 390.74653,524.13959 -12.08402,5.2e-4 a 15.0015,15.0015 0 0 0 -8.75967,3.26956 15.0015,15.0015 0 0 0 -3.32228,-0.89296 h -13.594 a 15.0015,15.0015 0 0 0 -12.08764,6.59959 15.0015,15.0015 0 0 0 -5.32422,-1.42575 h -30.96297 a 15.0015,15.0015 0 0 0 -15.00012,15.00012 v 19.63497 a 15.0015,15.0015 0 0 0 6.4885,11.97653 H 187.12743 a 15.0015,15.0015 0 0 0 -14.04101,9.72448 c -3.0262,8.05568 -2.06541,12.27244 -1.85156,19.36936 0.21384,7.09692 0.8851,15.45205 1.84536,24.30446 1.91982,17.69828 4.94639,37.10153 8.16023,50.88268 1.97197,8.50901 8.70627,11.89509 13.58832,12.87105 4.88483,0.97651 10.83341,0.64141 16.21089,-4.82813 a 15.0015,15.0015 0 0 0 1.82211,-2.25361 c 0,0 5.8218,-8.82118 11.65821,-17.66249 0.20184,-0.30578 0.35491,-0.53635 0.55655,-0.84181 a 15.0015,15.0015 0 0 0 9.34,-1.70067 l 19.66805,-11.53366 h 24.09724 a 15.0015,15.0015 0 0 0 15.00012,-14.9996 v -9.16637 h 0.20102 a 15.0015,15.0015 0 0 0 13.89683,12.10934 l -28.24634,40.74428 0.092,-0.12867 c -3.73237,5.26529 -4.37089,10.13922 -2.93729,15.95665 1.43361,5.81741 7.34434,12.29496 14.01517,14.00018 a 15.0015,15.0015 0 0 0 0.32453,0.078 l 28.63442,6.64869 -0.5581,-0.14056 c 7.39459,2.01935 16.73062,-0.75883 21.36872,-6.70709 3.29525,-4.22606 5.15694,-10.46554 3.35742,-16.49822 l 14.42806,-24.65637 c 0.17877,-0.007 0.38051,-0.0172 0.47852,-0.0176 0.51771,-0.002 1.24701,-0.003 2.07791,-0.004 h 5.47874 12.38839 c 0.78453,4.60465 1.96635,9.23415 3.33623,14.06065 -0.53745,2.83266 -0.52804,5.78509 0.28887,8.68164 2.86661,10.16428 13.93553,16.36298 24.09982,13.49633 l 34.88676,-9.83971 c 10.16422,-2.86662 16.36247,-13.93553 13.49582,-24.09982 -0.74528,-2.64259 -2.06388,-4.99667 -3.75791,-7.01353 -1.47994,-3.76193 -2.13322,-6.37026 -2.39624,-9.01547 a 15.0015,15.0015 0 0 0 5.14439,-10.5761 v -5.83995 a 15.0015,15.0015 0 0 0 -2.08411,-6.65076 15.0015,15.0015 0 0 0 4.04317,0.12144 l 8.55451,-2.44326 h 17.2558 a 15.0015,15.0015 0 0 0 4.79919,7.20111 c -1.0977,15.17873 -0.58149,32.98801 1.53324,45.77499 a 15.0015,15.0015 0 0 0 14.79858,12.55324 h 12.68759 a 15.0015,15.0015 0 0 0 14.80272,-12.5765 c 2.0865,-12.73859 2.60777,-30.59976 1.52135,-45.7693 a 15.0015,15.0015 0 0 0 4.78111,-7.18354 h 16.34008 a 15.0015,15.0015 0 0 0 10.39833,-4.90823 h 20.56257 a 15.0015,15.0015 0 0 0 10.39834,-4.90822 h 38.34184 a 15.0015,15.0015 0 0 0 5.63273,1.50947 h 24.16597 a 15.0015,15.0015 0 0 0 15.00012,-15.00012 v -13.59349 a 15.0015,15.0015 0 0 0 -15.00012,-15.00012 h -24.16597 a 15.0015,15.0015 0 0 0 -5.63273,1.50999 h -33.90801 l -0.17208,-10.27534 v -0.008 c -0.11786,-10.6965 -5.54557,-17.36887 -16.07034,-19.51354 -1.51739,-0.30938 -3.02093,-0.43177 -4.43952,-0.40617 a 15.0015,15.0015 0 0 0 -0.004,0 c -6.6e-4,10e-6 -10e-4,-10e-6 -0.002,0 -6.34042,0.11653 -11.82814,3.05875 -15.54479,7.45277 a 15.0015,15.0015 0 0 0 -0.17208,0.20722 l -0.0408,0.0507 a 15.0015,15.0015 0 0 0 -0.16433,0.20308 l -3.42356,4.34961 a 15.0015,15.0015 0 0 0 -5.75986,-1.54254 h -81.56091 a 15.0015,15.0015 0 0 0 -13.10153,7.91218 l -1.36115,-0.38913 9.43766,-19.02933 a 15.0015,15.0015 0 0 0 -13.43742,-21.66379 h -25.20518 a 15.0015,15.0015 0 0 0 -10.6624,-5.17384 h -13.59348 a 15.0015,15.0015 0 0 0 -3.32435,0.89245 15.0015,15.0015 0 0 0 -8.7576,-3.26957 z m -12.20649,14.93087 h 12.0835 v 10.57093 h -0.0393 c -0.16047,-0.14169 -0.34696,-0.25119 -0.51728,-0.38137 0.23698,0.18108 0.47122,0.36474 0.68885,0.56792 -0.0612,-0.0572 -0.10724,-0.12902 -0.17002,-0.18448 h 12.11968 v 13.59297 h -12.12123 c 0.0618,-0.0546 0.10717,-0.12518 0.16744,-0.18139 -1.61719,1.50807 -3.77376,2.44688 -6.16965,2.44688 -2.39418,0 -4.54921,-0.93815 -6.16604,-2.44429 0.0593,0.0553 0.10354,0.12513 0.16434,0.1788 h -12.12278 v 11.44064 h 36.24843 v -33.22794 h 13.59349 v 8.19433 h 9.33896 v -3.02256 h 26.52913 l -9.74049,19.63602 h -16.78864 v -3.02049 h -9.33896 v 11.44064 8.89093 h 26.38857 v 35.8066 c -0.0272,7.15646 -7.33661,1.87217 -7.55199,11.02052 v 12.11812 l 3.02048,1.12552 v 5.8384 l -5.40742,0.9896 c -0.0346,12.37574 0.53725,16.14342 4.23695,25.49457 l -40.43991,10.40815 c -3.29486,-11.19056 -5.01325,-18.66398 -4.60282,-28.43289 l -4.62865,0.84698 10e-4,0.0129 -38.27053,-0.0129 -22.03484,37.6592 c -1.34935,2.07376 0.58081,4.78666 1.1958,5.24826 1.90756,2.00012 -0.47289,6.95255 -5.77329,5.50509 l -28.6365,-6.64766 c -3.75326,-0.95942 -3.8407,-4.93898 -2.55695,-6.74998 l 30.63172,-44.18851 c 3.38102,-5.02397 2.90035,-8.31869 3.00861,-11.36727 l -5.2e-4,-5.1e-4 c 0.15466,-6.1674 -4.12577,-8.57384 -9.8888,-8.63875 h -7.47913 v -12.20391 h -9.06147 v 5.2e-4 h -20.39147 v 10.57248 h 5.2e-4 v 13.59348 h -28.17089 l -23.18153,13.59297 v -19.33267 l 14.5929,-6.07043 -14.59342,6.06992 v 7.53649 l -3.07526,1.22421 c -0.12475,0.17236 -23.41046,35.45468 -23.41046,35.45468 -1.25472,1.2762 -4.11197,0.72356 -4.49068,-0.91622 -5.93704,-25.4496 -12.10886,-76.88189 -8.72454,-85.89088 h 111.44437 v 24.16545 h 5.1e-4 v -24.16545 h 9.06147 l 17.36845,-9.66608 h 11.37036 v -8.89093 h 16.61397 v -11.44064 h -17.41134 v 3.02049 H 304.49029 V 546.6209 h 30.96245 v 3.02256 h 17.41134 v -8.19433 h 13.59349 v 8.19433 h 12.11967 c -0.0634,0.056 -0.10975,0.12879 -0.17156,0.18655 0.21652,-0.20229 0.45004,-0.38494 0.68575,-0.56534 -0.16816,0.12873 -0.35256,0.23677 -0.51108,0.37672 h -0.0403 z m 0.55139,10.19421 c 0.19839,-0.15189 0.39214,-0.30903 0.60306,-0.44442 -0.21161,0.13565 -0.40407,0.29211 -0.60306,0.44442 z m 0.60306,-0.44442 c 0.27248,-0.17467 0.5647,-0.3183 0.85628,-0.46353 -0.29198,0.14563 -0.58344,0.28841 -0.85628,0.46353 z m 0.85628,-0.46353 c 0.20987,-0.10469 0.41212,-0.22207 0.63097,-0.31058 -0.21951,0.0886 -0.42049,0.20573 -0.63097,0.31058 z m 0.63097,-0.31058 c 0.34681,-0.13994 0.71371,-0.23699 1.08055,-0.33383 -0.36724,0.0972 -0.73341,0.19342 -1.08055,0.33383 z m 1.08055,-0.33383 c 0.1874,-0.0496 0.36556,-0.12041 0.55759,-0.15813 -0.19234,0.0377 -0.36988,0.10858 -0.55759,0.15813 z m 0.55759,-0.15813 c 0.57034,-0.11167 1.15816,-0.17673 1.76217,-0.17673 0.60452,0 1.1924,0.0649 1.7632,0.17673 -0.57073,-0.1121 -1.15807,-0.17777 -1.76269,-0.17777 -0.60438,0 -1.1921,0.0657 -1.76268,0.17777 z m 3.52537,0 c 0.18677,0.0367 0.3602,0.10556 0.5426,0.15348 -0.18273,-0.0479 -0.35548,-0.11681 -0.5426,-0.15348 z m 0.5426,0.15348 c 0.37307,0.0978 0.74573,0.19713 1.09812,0.33951 -0.35265,-0.14275 -0.72473,-0.24141 -1.09812,-0.33951 z m 1.09812,0.33951 c 0.21368,0.0865 0.41086,0.20141 0.61599,0.30334 -0.20562,-0.10205 -0.40178,-0.21678 -0.61599,-0.30334 z m 0.61599,0.30334 c 0.2963,0.14707 0.59308,0.29334 0.86971,0.47078 -0.27712,-0.17797 -0.57287,-0.32327 -0.86971,-0.47078 z m 0.86971,0.47078 c 0.20818,0.13369 0.39932,0.28893 0.59531,0.43873 -0.19658,-0.15021 -0.38644,-0.30476 -0.59531,-0.43873 z m -11.06599,1.00872 c -0.26366,0.24633 -0.4976,0.51708 -0.73019,0.79323 0.23208,-0.27535 0.46725,-0.54751 0.73019,-0.79323 z m -0.73019,0.79323 c -0.15837,0.1879 -0.32377,0.3658 -0.46664,0.56638 0.14232,-0.19986 0.30892,-0.37912 0.46664,-0.56638 z m -0.46664,0.56638 c -0.21529,0.30233 -0.39099,0.62899 -0.56844,0.95756 0.17721,-0.32778 0.35357,-0.65589 0.56844,-0.95756 z m -0.56844,0.95756 c -0.11317,0.20933 -0.24171,0.40634 -0.33848,0.62529 0.0965,-0.21839 0.2257,-0.41647 0.33848,-0.62529 z m -0.33848,0.62529 c -0.16425,0.37185 -0.27687,0.7673 -0.39067,1.16375 0.11378,-0.39589 0.22654,-0.7924 0.39067,-1.16375 z m -0.39067,1.16375 c -0.0582,0.20246 -0.1418,0.39238 -0.18604,0.60048 0.0441,-0.20775 0.12801,-0.39835 0.18604,-0.60048 z m -0.18604,0.60048 c -0.12617,0.5939 -0.19509,1.20867 -0.19947,1.8402 0.004,-0.63127 0.0733,-1.2466 0.19947,-1.8402 z m -0.19947,1.8402 c -1.5e-4,0.0216 -0.007,0.0414 -0.007,0.063 0,0.021 0.007,0.0401 0.007,0.061 -1.4e-4,-0.0209 -0.006,-0.0401 -0.006,-0.061 0,-0.0216 0.006,-0.0415 0.006,-0.063 z m 0,0.12402 c 0.004,0.63324 0.0738,1.24944 0.20051,1.84485 -0.12685,-0.59509 -0.19624,-1.21168 -0.20051,-1.84485 z m 0.20051,1.84485 c 0.0425,0.19944 0.12242,0.38143 0.17776,0.57568 -0.0551,-0.19399 -0.13539,-0.37654 -0.17776,-0.57568 z m 0.17776,0.57568 c 0.11537,0.40583 0.23183,0.80944 0.39998,1.18959 -0.16813,-0.3795 -0.28454,-0.78444 -0.39998,-1.18959 z m 0.39998,1.18959 c 0.0928,0.20955 0.21611,0.39819 0.32401,0.59893 -0.10743,-0.20028 -0.23155,-0.38989 -0.32401,-0.59893 z m 0.32401,0.59893 c 0.1823,0.33985 0.36489,0.67666 0.58756,0.98857 -0.22237,-0.31115 -0.40538,-0.64962 -0.58756,-0.98857 z m 0.58756,0.98857 c 0.13549,0.18958 0.29245,0.35763 0.44183,0.53588 -0.14875,-0.17775 -0.30688,-0.34685 -0.44183,-0.53588 z m 0.44183,0.53588 c 0.24066,0.28756 0.48442,0.56779 0.75861,0.82321 -0.27343,-0.25471 -0.51845,-0.53664 -0.75861,-0.82321 z m 38.64209,1.00201 v -13.59297 h -5.2e-4 v 13.59297 z m -25.54779,-0.18139 c 0.27074,-0.25247 0.51076,-0.53005 0.74879,-0.8139 -0.2375,0.28293 -0.47879,0.5621 -0.74879,0.8139 z m 0.74879,-0.8139 c 0.15198,-0.18106 0.31144,-0.3519 0.44906,-0.54467 -0.1371,0.19217 -0.29769,0.36416 -0.44906,0.54467 z m 0.44906,-0.54467 c 0.22142,-0.31034 0.403,-0.64541 0.58447,-0.9834 -0.18128,0.33716 -0.3634,0.67376 -0.58447,0.9834 z m 0.58447,-0.9834 c 0.10846,-0.20175 0.2323,-0.39139 0.32556,-0.60203 -0.0929,0.2101 -0.21751,0.40077 -0.32556,0.60203 z m 0.32556,-0.60203 c 0.16815,-0.38015 0.2846,-0.78376 0.39997,-1.18959 -0.11534,0.40515 -0.23196,0.81008 -0.39997,1.18959 z m 0.39997,-1.18959 c 0.0553,-0.19425 0.13529,-0.37625 0.17777,-0.57568 -0.0424,0.19914 -0.12262,0.38169 -0.17777,0.57568 z m 0.17777,-0.57568 c 0.13086,-0.61504 0.20671,-1.25065 0.20671,-1.90583 0,0.65512 -0.0758,1.29108 -0.20671,1.90583 z m 0.20671,-1.90583 c 0,-0.65517 -0.0758,-1.29079 -0.20671,-1.90582 0.13086,0.61471 0.20671,1.2509 0.20671,1.90582 z m -0.20671,-1.90582 c -0.0427,-0.20053 -0.12315,-0.38349 -0.1788,-0.57878 0.0555,0.19496 0.13621,0.37861 0.1788,0.57878 z m -0.1788,-0.57878 c -0.11505,-0.40419 -0.23049,-0.80675 -0.39791,-1.18546 0.16729,0.37822 0.28289,0.78181 0.39791,1.18546 z m -0.39791,-1.18546 c -0.0949,-0.21462 -0.22158,-0.40749 -0.33228,-0.61288 0.11034,0.2049 0.23763,0.39879 0.33228,0.61288 z m -0.33228,-0.61288 c -0.17923,-0.33284 -0.35714,-0.66348 -0.57516,-0.96945 0.21759,0.30531 0.39619,0.6374 0.57516,0.96945 z m -0.57516,-0.96945 c -0.14098,-0.19782 -0.30436,-0.37314 -0.46043,-0.55862 0.15544,0.18485 0.31998,0.36151 0.46043,0.55862 z m -0.46043,-0.55862 c -0.23459,-0.27898 -0.47065,-0.55239 -0.73691,-0.80099 0.26553,0.24798 0.50284,0.52282 0.73691,0.80099 z m 186.08063,18.4397 c 0.3879,-0.007 0.77952,0.0263 1.17202,0.10645 2.0938,0.42666 4.04233,2.70048 4.06693,4.98575 l 0.34003,20.20548 v 4.90874 h 54.37291 v -1.5105 h 24.16597 v 13.59349 h -24.16597 v -1.5105 h -54.37291 v 4.90874 H 552.1899 v 4.90874 h -90.62186 l -10.57248,3.02101 v -3.776 h -8.30698 v -28.69695 h 8.30698 v -3.776 l 10.57248,3.02049 h 9.06198 v -9.66608 h 81.55988 v 9.66608 4.90874 h 2.93006 c 0.1203,-0.26984 0.27273,-0.52404 0.45423,-0.75706 l 17.58756,-22.34696 0.0419,-0.0517 c 1.0981,-1.29823 2.68916,-2.11126 4.36976,-2.14199 z m 9.56169,10.36629 h 1.57458 l 0.0269,1.46296 a 15.0015,15.0015 0 0 0 -1.21491,-0.32453 15.0015,15.0015 0 0 0 -0.38654,-1.13843 z m -13.455,5.09788 -7.42797,9.83351 h 7.61039 z m -78.88407,35.34151 h 27.18645 v 10.57249 h -27.18645 z m -293.31595,5.92677 c -2.09173,0 -3.776,1.68426 -3.776,3.776 0,2.09174 1.68427,3.776 3.776,3.776 h 5.0555 c -0.45249,-1.17559 -0.74827,-2.41453 -0.74827,-3.70727 0,-1.34241 0.30889,-2.63043 0.79478,-3.84473 z m 10.55233,0 c 0.48588,1.21429 0.79426,2.50233 0.79426,3.84473 0,1.22687 -0.34779,2.38551 -0.75396,3.51348 l 0.66405,-0.26355 a 15.0015,15.0015 0 0 0 -0.1385,0.45734 h 4.2907 c 2.09176,0 3.77599,-1.68426 3.77599,-3.776 0,-2.09174 -1.68423,-3.776 -3.77599,-3.776 z m 290.02571,5.01934 h 12.68708 c 2.2536,13.31226 2.2416,40.68738 0,54.3729 h -12.68708 c -2.2745,-13.75306 -2.2805,-40.90762 0,-54.3729 z m -144.28835,43.03251 h 0.0961 c -0.0801,0.004 -0.0342,0.002 -0.0977,0.006 z m 78.16732,3.03341 c 1.75249,0.21855 3.28306,1.45707 3.79408,3.26905 0.68138,2.41598 -0.71509,4.90949 -3.13107,5.59087 l -34.88779,9.8392 c -2.41598,0.68137 -4.90951,-0.71511 -5.59088,-3.13108 -0.68138,-2.41599 0.7151,-4.9095 3.13108,-5.59087 l 34.88779,-9.8392 c 0.604,-0.17034 1.21263,-0.21082 1.79679,-0.13797 z m -98.60483,12.87673 c 2.41456,1.81232 2.28227,2.11953 2.61947,2.62671 -0.27164,-0.32429 -0.46533,-0.6651 -0.76791,-0.98236 a 15.0015,15.0015 0 0 0 -1.85156,-1.64435 z" /><g
           id="g10"
           transform="translate(170.89387,514.62704)"><g
             id="g4"
             transform="rotate(2.9346295,2790.298,75.472699)"><rect
               style="fill:#828282;fill-opacity:1;stroke:#333333;stroke-width:7;stroke-linecap:round;stroke-dasharray:none;stroke-opacity:1"
               id="rect5-5"
               width="45.310951"
               height="9.062191"
               x="-167.836"
               y="363.13019"
               ry="4.5310955"
               transform="matrix(-0.94729639,0.32035847,0.32035847,0.94729639,0,0)" /><path
               style="fill:#333333;fill-opacity:0.1;stroke:none;stroke-width:0.264583px;stroke-linecap:butt;stroke-linejoin:miter;stroke-opacity:1"
               d="m 229.55645,294.39855 41.7279,-13.9093 3.27279,9.61378 -42.54611,14.52295 z"
               id="path15"
               sodipodi:nodetypes="ccccc" /><path
               style="fill:#333333;fill-opacity:0.1;stroke:none;stroke-width:0.264583px;stroke-linecap:butt;stroke-linejoin:miter;stroke-opacity:1"
               d="m 233.23833,303.39869 7.9774,-2.65913 4.50006,12.88656 -9.00015,2.45458 z"
               id="path16" /><path
               style="fill:#333333;fill-opacity:0.1;stroke:none;stroke-width:0.264583px;stroke-linecap:butt;stroke-linejoin:miter;stroke-opacity:1"
               d="m 278.62669,304.21797 -7.9774,2.65913 -4.50006,-12.88656 9.00015,-2.45458 z"
               id="path16-7" /></g><path
             style="fill:#b89a80;fill-opacity:1;stroke:#333333;stroke-width:7;stroke-linecap:butt;stroke-linejoin:round;stroke-dasharray:none;stroke-opacity:1"
             d="m 178.17051,144.17358 -22.03523,37.65926 c -1.34936,2.07376 0.58056,4.78689 1.19555,5.24849 1.90756,2.00013 -0.47302,6.95246 -5.77343,5.50499 l -28.63619,-6.64768 c -3.75326,-0.95942 -3.84056,-4.93896 -2.55681,-6.74996 l 30.63153,-44.18824 c 3.38102,-5.02397 2.90048,-8.31892 3.00874,-11.3675 h 24.16584 z"
             id="path1-7-3"
             sodipodi:nodetypes="cccccccccc" /><path
             id="path3-3-7"
             style="fill:#b89a80;fill-opacity:1;stroke:#333333;stroke-width:7;stroke-linecap:butt;stroke-linejoin:round;stroke-dasharray:none;stroke-opacity:1"
             d="m 154.00464,68.958292 -17.36844,9.666077 v 36.369361 h 7.47861 c 5.76303,0.0649 10.04398,2.47135 9.88932,8.63874 h 24.16596 v 20.54139 h 8.06308 v -0.0155 h 30.20694 v 0.0155 l 0.0847,-0.0155 h 0.98443 V 143.978 l 49.77216,-9.11055 v -5.83841 l -3.02049,-1.12551 v -12.11812 c 0.21538,-9.14835 7.5248,-3.86406 7.552,-11.02052 V 68.958292 Z m 62.43547,75.215568 h -5.2e-4 -8.56227 c 2.75536,0 8.56279,0.0129 8.56279,0.0129 z m -30.20694,0 v 0.0129 c 0.25012,-0.0139 5.08146,-0.0129 8.56278,-0.0129 z m 9.75311,-26.81837 h 13.08137 c 4.74403,0 8.56227,3.81981 8.56227,8.56382 v 8.71094 h -30.20694 v -8.71094 c 0,-4.74401 3.81928,-8.56382 8.5633,-8.56382 z"
             sodipodi:nodetypes="ccccccccccccccccccccccccccccccsssccss" /><path
             style="fill:#828282;fill-opacity:1;stroke:#333333;stroke-width:7;stroke-linecap:butt;stroke-linejoin:round;stroke-dasharray:none;stroke-opacity:1"
             d="m 261.8741,135.85707 c -0.0346,12.37575 0.5369,16.14348 4.23661,25.49464 l -40.43996,10.40828 c -3.29487,-11.19057 -5.01316,-18.66437 -4.60273,-28.43329 z"
             id="path4-8"
             sodipodi:nodetypes="ccccc" /><path
             style="fill:none;stroke:#333333;stroke-width:7;stroke-linecap:round;stroke-dasharray:none;stroke-opacity:0.4"
             d="m 248.97256,139.23965 c -0.49373,5.16314 -0.12523,13.32669 2.55036,17.60731"
             id="path5-4"
             sodipodi:nodetypes="cc" /><path
             style="fill:none;stroke:#333333;stroke-width:7;stroke-linecap:round;stroke-dasharray:none;stroke-opacity:0.4"
             d="m 233.65046,143.75448 c -0.50805,6.08869 -0.23884,11.46362 2.20907,17.0956"
             id="path5-4-6"
             sodipodi:nodetypes="cc" /><rect
             style="fill:#828282;fill-opacity:1;stroke:#333333;stroke-width:7;stroke-linecap:round;stroke-linejoin:round;stroke-dasharray:none;stroke-opacity:1"
             id="rect6-2"
             width="135.17682"
             height="15.726109"
             x="-271.81308"
             y="78.624222"
             ry="0"
             transform="scale(-1,1)" /><rect
             style="fill:#6c6c6c;fill-opacity:1;stroke:#333333;stroke-width:7;stroke-linecap:round;stroke-linejoin:round;stroke-dasharray:none;stroke-opacity:1"
             id="rect8-7"
             width="36.248764"
             height="15.725921"
             x="-235.56442"
             y="78.624222"
             transform="scale(-1,1)" /><path
             id="path5-7-9"
             style="fill:#828282;fill-opacity:1;stroke:#333333;stroke-width:7;stroke-linecap:round;stroke-linejoin:round;stroke-dasharray:none;stroke-opacity:1"
             d="m 169.00559,103.53817 14.34995,0.0451 -10.6176,9.3844 -0.003,-0.0115 a 5.4534297,5.4534297 0 0 1 -3.72782,1.4891 5.4534297,5.4534297 0 0 1 -5.45366,-5.45366 5.4534297,5.4534297 0 0 1 5.45366,-5.45366 z" /><circle
             style="fill:#828282;fill-opacity:1;stroke:#333333;stroke-width:7;stroke-linecap:round;stroke-linejoin:round;stroke-dasharray:none;stroke-opacity:1"
             id="path9-8"
             cx="-232.71225"
             cy="114.80193"
             r="6.0414605"
             transform="scale(-1,1)" /><rect
             style="fill:#828282;fill-opacity:1;stroke:#333333;stroke-width:7;stroke-linecap:round;stroke-linejoin:round;stroke-dasharray:none;stroke-opacity:1"
             id="rect9-7"
             width="8.3070078"
             height="28.696938"
             x="-280.12009"
             y="75.603317"
             transform="scale(-1,1)" /><rect
             style="fill:#828282;fill-opacity:1;stroke:#333333;stroke-width:7;stroke-linecap:round;stroke-linejoin:round;stroke-dasharray:none;stroke-opacity:1"
             id="rect10-5"
             width="9.062191"
             height="24.165842"
             x="-136.6362"
             y="78.624222"
             transform="scale(-1,1)" /><path
             id="path11-8"
             style="fill:#b89a80;fill-opacity:1;stroke:#333333;stroke-width:7;stroke-linecap:butt;stroke-linejoin:round;stroke-dasharray:none;stroke-opacity:1"
             d="m 127.57455,78.624217 v 24.165923 h -20.39141 v 10.57269 H 74.71111 l -18.88038,7.85342 v 7.53654 l -3.07517,1.22383 c -0.12475,0.17236 -23.41041,35.45512 -23.41041,35.45512 -1.25472,1.2762 -4.1123,0.72347 -4.49101,-0.91631 C 18.9171,139.0658 12.74536,87.633216 16.12969,78.624216 Z M 46.01357,111.19148 H 30.60488 c -2.09173,0 -3.77606,1.68433 -3.77606,3.77607 0,2.09174 1.68433,3.77607 3.77606,3.77607 h 15.40869 c 2.09176,0 3.77609,-1.68433 3.77609,-3.77607 0,-2.09174 -1.68433,-3.77607 -3.77609,-3.77607 z"
             sodipodi:nodetypes="ccccccccccccsssssss" /><path
             style="fill:none;stroke:#333333;stroke-width:7;stroke-linecap:square;stroke-linejoin:miter;stroke-dasharray:none;stroke-opacity:1"
             d="M 107.18335,102.7899 H 18.07181"
             id="path13-4"
             sodipodi:nodetypes="cc" /><path
             style="fill:#828282;fill-opacity:1;stroke:#333333;stroke-width:7;stroke-linecap:butt;stroke-linejoin:round;stroke-dasharray:none;stroke-opacity:1"
             d="M 107.18356,113.36283 H 74.71072 l -18.87957,7.8539 v 19.33268 L 79.0126,126.95612 h 28.17096 z"
             id="path14-2-2"
             sodipodi:nodetypes="ccccccc" /><path
             id="rect117-5"
             style="fill:#828282;fill-opacity:1;stroke:#333333;stroke-width:7;stroke-linecap:square;stroke-linejoin:round;stroke-dasharray:none"
             d="m 290.69263,74.848137 -10.57259,-3.02073 v 36.248773 l 10.57259,-3.02073 z"
             sodipodi:nodetypes="ccccc" /><rect
             style="fill:#b89a80;fill-opacity:1;stroke:#333333;stroke-width:7;stroke-linecap:square;stroke-linejoin:round;stroke-dasharray:none;stroke-opacity:1"
             id="rect118-0"
             width="90.621902"
             height="30.207302"
             x="-381.31467"
             y="74.848129"
             transform="scale(-1,1)" /><rect
             style="fill:#828282;fill-opacity:1;stroke:#333333;stroke-width:7;stroke-linecap:square;stroke-linejoin:round;stroke-dasharray:none;stroke-opacity:1"
             id="rect119-7"
             width="81.559715"
             height="9.666337"
             x="-381.31467"
             y="65.181808"
             transform="scale(-1,1)" /><rect
             style="fill:#828282;fill-opacity:1;stroke:#333333;stroke-width:7;stroke-linecap:square;stroke-linejoin:round;stroke-dasharray:none;stroke-opacity:1"
             id="rect120-2"
             width="54.373142"
             height="10.572556"
             x="-466.65024"
             y="84.665512"
             ry="0"
             transform="scale(-1,1)" /><rect
             style="fill:#828282;fill-opacity:1;stroke:#333333;stroke-width:7;stroke-linecap:square;stroke-linejoin:round;stroke-dasharray:none;stroke-opacity:1"
             id="rect121-3"
             width="24.165842"
             height="13.593286"
             x="-490.81613"
             y="83.155136"
             transform="scale(-1,1)" /><rect
             style="fill:#b89a80;fill-opacity:1;stroke:#333333;stroke-width:7;stroke-linecap:round;stroke-linejoin:round;stroke-dasharray:none;stroke-opacity:1"
             id="rect122-9"
             width="30.962484"
             height="20.389927"
             x="-412.27707"
             y="79.756821"
             transform="scale(-1,1)" /><path
             id="path122-1-0"
             style="color:#000000;fill:#828282;fill-opacity:1;stroke:#333333;stroke-width:7;stroke-linecap:round;stroke-linejoin:round;stroke-dasharray:none;stroke-opacity:1"
             d="m 406.69803,54.459166 c 0.3879,-0.007 0.7798,0.026 1.1723,0.10615 2.0938,0.42666 4.0419,2.70059 4.0665,4.98586 l 0.3403,20.20565 h -9.2897 l -0.1828,-9.83374 -7.4276,9.83374 h -11.1326 c 0.1203,-0.26984 0.2728,-0.52407 0.4543,-0.75709 l 17.5878,-22.34735 0.042,-0.0515 c 1.0981,-1.29823 2.6887,-2.11098 4.3693,-2.14171 z"
             sodipodi:nodetypes="sccccccccccss" /><path
             id="rect15-0-3"
             style="fill:#828282;fill-opacity:1;stroke:#333333;stroke-width:7;stroke-linecap:round;stroke-linejoin:round;stroke-dasharray:none;stroke-opacity:1"
             d="m 219.74818,24.460836 v 10.571131 h -0.039 c -1.59646,-1.4096 -3.69517,-2.26502 -6.00207,-2.26502 -2.30663,0 -4.40571,0.85575 -6.00207,2.26502 h -0.0405 v -10.57113 z" /><rect
             style="fill:#828282;fill-opacity:1;stroke:#333333;stroke-width:7;stroke-linecap:round;stroke-linejoin:round;stroke-dasharray:none"
             id="rect1-8-2"
             width="80.049347"
             height="8.8912382"
             x="-245.42416"
             y="60.067242"
             transform="scale(-1,1)" /><path
             id="path14-3"
             style="fill:#828282;fill-opacity:1;stroke:#333333;stroke-width:7;stroke-linecap:butt;stroke-linejoin:round;stroke-dasharray:none;stroke-opacity:1"
             d="m 281.29238,32.011416 -9.74068,19.63589 h -16.78861 v -3.02055 h -9.33949 v -13.59323 h 9.33949 v -3.02211 z m -116.71482,0 v 3.02211 h 17.41143 v 13.59323 h -17.41143 v 3.02055 h -30.96255 v -19.63589 z m 67.25278,3.02211 v 13.59323 h -12.12119 c 1.8778,-1.65805 3.05957,-4.08308 3.05957,-6.79661 0,-2.71274 -1.18116,-5.13861 -3.05803,-6.79662 z m -24.12844,0 c -1.87672,1.65801 -3.05801,4.084 -3.05801,6.79662 0,2.71383 1.18292,5.13855 3.06112,6.79661 h -12.12277 v -13.59323 z" /><rect
             style="fill:#6f6f6f;fill-opacity:1;stroke:#333333;stroke-width:7;stroke-linecap:round;stroke-linejoin:round;stroke-dasharray:none;stroke-opacity:1"
             id="rect14-1"
             width="13.593286"
             height="33.228031"
             x="-245.42416"
             y="26.839212"
             transform="scale(-1,1)" /><rect
             style="fill:#6f6f6f;fill-opacity:1;stroke:#333333;stroke-width:7;stroke-linecap:round;stroke-linejoin:round;stroke-dasharray:none;stroke-opacity:1"
             id="rect14-4-0"
             width="13.593286"
             height="33.228031"
             x="-195.58212"
             y="26.839212"
             transform="scale(-1,1)" /><rect
             style="fill:#6f6f6f;fill-opacity:1;stroke:#333333;stroke-width:7;stroke-linecap:round;stroke-linejoin:round;stroke-dasharray:none;stroke-opacity:1"
             id="rect15-08"
             width="18.124382"
             height="18.124382"
             x="-222.76871"
             y="32.767162"
             ry="9.062191"
             transform="scale(-1,1)" /><rect
             style="fill:#828282;fill-opacity:1;stroke:#333333;stroke-width:7;stroke-linecap:round;stroke-linejoin:round;stroke-dasharray:none;stroke-opacity:1"
             id="rect16-0"
             width="27.186571"
             height="10.572556"
             x="-351.10727"
             y="105.26482"
             transform="scale(-1,1)" /><path
             id="rect17-0-4"
             style="fill:#b89a80;fill-opacity:1;stroke:#333333;stroke-width:7;stroke-linecap:round;stroke-linejoin:round;stroke-dasharray:none"
             d="m 343.86963,116.21062 h -12.687 c -2.2805,13.4653 -2.2745,40.62007 0,54.37315 h 12.687 c 2.2416,-13.68554 2.2536,-41.06087 0,-54.37315 z"
             sodipodi:nodetypes="ccccc" /><path
             id="rect17-0-4-1"
             style="fill:#828282;fill-opacity:1;stroke:#333333;stroke-width:7.00008;stroke-linecap:round;stroke-linejoin:round;stroke-dasharray:none"
             d="m 330.10733,159.79944 c 0.2772,4.0607 0.6572,7.77474 1.1524,10.79831 h 12.6871 c 0.5021,-3.0362 0.8871,-6.74728 1.1679,-10.79831 z" /><circle
             style="fill:#828282;fill-opacity:1;stroke:#333333;stroke-width:7;stroke-linecap:round;stroke-linejoin:round;stroke-dasharray:none;stroke-opacity:1"
             id="path9-3-0"
             cx="-318.34647"
             cy="90.05648"
             r="6.0414605"
             transform="scale(-1,1)" /><rect
             style="opacity:0.8;fill:#333333;fill-opacity:0.15;stroke-width:4;stroke-linecap:round;stroke-dasharray:none"
             id="rect7"
             width="111.44315"
             height="24.166565"
             x="16.129665"
             y="78.624222" /><path
             style="fill:#333333;fill-opacity:0.1;stroke:none;stroke-width:0.264583px;stroke-linecap:butt;stroke-linejoin:miter;stroke-opacity:1"
             d="m 123.433,174.8878 37.28608,6.62391 -2.41392,14.80225 -38.14847,-12.39458 z"
             id="path7-3" /><rect
             style="opacity:0.8;fill:#333333;fill-opacity:0.1;stroke:none;stroke-width:4;stroke-linecap:round;stroke-dasharray:none;stroke-opacity:0.4"
             id="rect9"
             width="14.862675"
             height="24.180367"
             x="112.71017"
             y="78.624222" /><path
             style="fill:#333333;fill-opacity:0.1;stroke:none;stroke-width:0.264583px;stroke-linecap:butt;stroke-linejoin:miter;stroke-opacity:1"
             d="m 28.57233,78.624219 c -5.88254,32.608981 6.68454,77.982011 6.68454,77.982011 L 24.4724,170.74754 12.52908,75.124217 Z"
             id="path9-6"
             sodipodi:nodetypes="ccccc" /><rect
             style="opacity:0.8;fill:#333333;fill-opacity:0.1;stroke:none;stroke-width:4;stroke-linecap:round;stroke-dasharray:none;stroke-opacity:0.4"
             id="rect10-55"
             width="9.3629837"
             height="20.094995"
             x="55.907925"
             y="117.28979" /><rect
             style="opacity:0.8;fill:#333333;fill-opacity:0.1;stroke:none;stroke-width:4;stroke-linecap:round;stroke-dasharray:none;stroke-opacity:0.4"
             id="rect11"
             width="10.275352"
             height="24.532696"
             x="96.985008"
             y="102.80458" /><rect
             style="opacity:0.8;fill:#333333;fill-opacity:0.1;stroke:none;stroke-width:4;stroke-linecap:round;stroke-dasharray:none;stroke-opacity:1"
             id="rect12-8"
             width="15.116412"
             height="15.711673"
             x="136.71341"
             y="78.638657" /><rect
             style="opacity:0.8;fill:#333333;fill-opacity:0.1;stroke:none;stroke-width:4;stroke-linecap:round;stroke-dasharray:none;stroke-opacity:1"
             id="rect12-6"
             width="15.116412"
             height="15.711673"
             x="184.69449"
             y="78.39238" /><rect
             style="opacity:0.8;fill:#333333;fill-opacity:0.1;stroke:none;stroke-width:4;stroke-linecap:round;stroke-dasharray:none;stroke-opacity:1"
             id="rect12-3"
             width="15.116412"
             height="15.711673"
             x="257.59811"
             y="78.631348" /><rect
             style="opacity:0.8;fill:#333333;fill-opacity:0.1;stroke:none;stroke-width:4;stroke-linecap:round;stroke-dasharray:none;stroke-opacity:1"
             id="rect12-4"
             width="15.116412"
             height="15.711673"
             x="235.56442"
             y="78.631348" /><rect
             style="opacity:0.8;fill:#333333;fill-opacity:0.1;stroke:none;stroke-width:4;stroke-linecap:round;stroke-dasharray:none;stroke-opacity:1"
             id="rect12-0"
             width="15.116412"
             height="15.711673"
             x="198.978"
             y="78.631439" /><rect
             style="opacity:0.8;fill:#333333;fill-opacity:0.1;stroke:none;stroke-width:4;stroke-linecap:round;stroke-dasharray:none;stroke-opacity:1"
             id="rect12-37"
             width="15.116412"
             height="15.711673"
             x="220.77267"
             y="78.631348" /><rect
             style="opacity:0.8;fill:#333333;fill-opacity:0.1;stroke:none;stroke-width:4;stroke-linecap:round;stroke-dasharray:none;stroke-opacity:1"
             id="rect13-1"
             width="135.17664"
             height="9.9499083"
             x="136.63626"
             y="94.350334" /><path
             style="fill:#333333;fill-opacity:0.1;stroke:none;stroke-width:0.264583px;stroke-linecap:butt;stroke-linejoin:miter;stroke-opacity:1"
             d="m 216.43946,132.19627 47.15042,-8.57495 2.44861,11.21211 -50.00342,10.05223 -37.88379,-0.72913 0.0192,-12.56211 z"
             id="path13"
             sodipodi:nodetypes="ccccccc" /><path
             style="fill:#333333;fill-opacity:0.1;stroke:none;stroke-width:0.264583px;stroke-linecap:butt;stroke-linejoin:miter;stroke-opacity:1"
             d="m 214.67728,144.4312 50.52351,-8.79559 -0.8182,10.43198 -49.09166,9.40923 z"
             id="path14"
             sodipodi:nodetypes="ccccc" /><path
             style="fill:#333333;fill-opacity:0.1;stroke:none;stroke-width:0.264583px;stroke-linecap:butt;stroke-linejoin:miter;stroke-opacity:1"
             d="m 280.19618,73.730344 10.49645,2.882053 v 5.523133 l -11.99224,-3.443835 z"
             id="path17" /><path
             style="fill:#333333;fill-opacity:0.1;stroke:none;stroke-width:0.264583px;stroke-linecap:butt;stroke-linejoin:miter;stroke-opacity:1"
             d="m 281.61583,105.54047 10.49645,-2.88206 v -5.523129 l -11.99224,3.443839 z"
             id="path17-8" /><rect
             style="opacity:0.8;fill:#333333;fill-opacity:0.1;stroke:none;stroke-width:4;stroke-linecap:round;stroke-dasharray:none;stroke-opacity:1"
             id="rect17-4"
             width="5.9858861"
             height="4.2934823"
             x="272.71451"
             y="78.631348" /><rect
             style="opacity:0.8;fill:#333333;fill-opacity:0.1;stroke:none;stroke-width:4;stroke-linecap:round;stroke-dasharray:none;stroke-opacity:1"
             id="rect18-7"
             width="5.8069768"
             height="6.4499125"
             x="273.42227"
             y="97.850334" /><rect
             style="opacity:0.8;fill:#333333;fill-opacity:0.1;stroke:none;stroke-width:4;stroke-linecap:round;stroke-dasharray:none;stroke-opacity:1"
             id="rect19-1"
             width="10.887325"
             height="30.206757"
             x="290.76889"
             y="74.862831" /><rect
             style="opacity:0.8;fill:#333333;fill-opacity:0.1;stroke:none;stroke-width:4.49497;stroke-linecap:round;stroke-dasharray:none;stroke-opacity:1"
             id="rect20-3"
             width="12.005946"
             height="46.453876"
             x="369.3085"
             y="65.181664" /><rect
             style="opacity:0.8;fill:#333333;fill-opacity:0.1;stroke:none;stroke-width:4;stroke-linecap:round;stroke-dasharray:none;stroke-opacity:1"
             id="rect21"
             width="15.57903"
             height="9.6811647"
             x="299.75516"
             y="65.181664" /><rect
             style="opacity:0.8;fill:#333333;fill-opacity:0.1;stroke:none;stroke-width:4;stroke-linecap:round;stroke-dasharray:none;stroke-opacity:1"
             id="rect22"
             width="8.77458"
             height="6.4645495"
             x="323.99796"
             y="106.965" /><rect
             style="opacity:0.8;fill:#333333;fill-opacity:0.1;stroke:none;stroke-width:4;stroke-linecap:round;stroke-dasharray:none;stroke-opacity:1"
             id="rect22-1"
             width="8.77458"
             height="6.4645495"
             x="341.99344"
             y="107.31882" /><rect
             style="opacity:0.8;fill:#333333;fill-opacity:0.1;stroke:none;stroke-width:4;stroke-linecap:round;stroke-dasharray:none;stroke-opacity:1"
             id="rect23"
             width="15.718673"
             height="8.7337551"
             x="329.22159"
             y="115.85173" /><rect
             style="opacity:0.8;fill:#333333;fill-opacity:0.1;stroke:none;stroke-width:4;stroke-linecap:round;stroke-dasharray:none;stroke-opacity:1"
             id="rect24"
             width="15.555167"
             height="7.3886847"
             x="329.9747"
             y="150.72525" /><rect
             style="opacity:0.8;fill:#333333;fill-opacity:0.1;stroke:none;stroke-width:4;stroke-linecap:round;stroke-dasharray:none;stroke-opacity:1"
             id="rect25"
             width="31.039539"
             height="18.507135"
             x="381.31467"
             y="81.653107" /><rect
             style="opacity:0.8;fill:#333333;fill-opacity:0.1;stroke:none;stroke-width:4;stroke-linecap:round;stroke-dasharray:none;stroke-opacity:1"
             id="rect26"
             width="9.0927429"
             height="22.473593"
             x="381.31442"
             y="79.756805" /><rect
             style="opacity:0.8;fill:#333333;fill-opacity:0.1;stroke:none;stroke-width:4;stroke-linecap:round;stroke-dasharray:none;stroke-opacity:1"
             id="rect27"
             width="9.0316019"
             height="20.403704"
             x="403.24527"
             y="79.756538" /><rect
             style="opacity:0.8;fill:#333333;fill-opacity:0.1;stroke:none;stroke-width:4;stroke-linecap:round;stroke-dasharray:none;stroke-opacity:1"
             id="rect28"
             width="10.527987"
             height="13.027367"
             x="412.35422"
             y="82.225067" /><rect
             style="opacity:0.8;fill:#333333;fill-opacity:0.1;stroke:none;stroke-width:4;stroke-linecap:round;stroke-dasharray:none;stroke-opacity:1"
             id="rect29"
             width="11.001622"
             height="17.093563"
             x="455.64816"
             y="83.154861" /><rect
             style="opacity:0.8;fill:#333333;fill-opacity:0.2;stroke:#333333;stroke-width:4;stroke-linecap:round;stroke-dasharray:none;stroke-opacity:1"
             id="rect30"
             width="24.165932"
             height="13.593225"
             x="466.72714"
             y="83.168694" /><rect
             style="opacity:0.8;fill:#333333;fill-opacity:0.1;stroke:none;stroke-width:4;stroke-linecap:round;stroke-dasharray:none;stroke-opacity:1"
             id="rect31"
             width="7.1943574"
             height="12.06833"
             x="466.72714"
             y="84.679756" /><rect
             style="opacity:0.8;fill:#333333;fill-opacity:0.1;stroke:none;stroke-width:4;stroke-linecap:round;stroke-dasharray:none;stroke-opacity:1"
             id="rect31-8"
             width="7.1943574"
             height="12.06833"
             x="483.62143"
             y="83.917305" /><rect
             style="fill:#333333;fill-opacity:0.1;stroke:none;stroke-width:4;stroke-linecap:round;stroke-dasharray:none;stroke-opacity:1"
             id="rect32"
             width="11.049758"
             height="8.8770638"
             x="165.45151"
             y="60.081402" /><rect
             style="fill:#333333;fill-opacity:0.1;stroke:none;stroke-width:4;stroke-linecap:round;stroke-dasharray:none;stroke-opacity:1"
             id="rect32-7"
             width="11.049758"
             height="8.8770638"
             x="233.53952"
             y="60.697231" /><rect
             style="fill:#333333;fill-opacity:0.1;stroke:none;stroke-width:4;stroke-linecap:round;stroke-dasharray:none;stroke-opacity:1"
             id="rect32-4"
             width="11.049758"
             height="8.8770638"
             x="260.00778"
             y="69.746971" /><rect
             style="fill:#333333;fill-opacity:0.1;stroke:none;stroke-width:4;stroke-linecap:round;stroke-dasharray:none;stroke-opacity:1"
             id="rect32-6"
             width="11.049758"
             height="8.8770638"
             x="149.55795"
             y="69.761589" /><rect
             style="fill:#333333;fill-opacity:0.1;stroke:none;stroke-width:4;stroke-linecap:round;stroke-dasharray:none;stroke-opacity:1"
             id="rect33"
             width="10.657641"
             height="20.756203"
             x="133.61398"
             y="32.011539" /><rect
             style="fill:#333333;fill-opacity:0.1;stroke:none;stroke-width:4;stroke-linecap:round;stroke-dasharray:none;stroke-opacity:1"
             id="rect34"
             width="9.5089779"
             height="15.524862"
             x="171.26163"
             y="35.49633" /><rect
             style="fill:#333333;fill-opacity:0.1;stroke:none;stroke-width:4;stroke-linecap:round;stroke-dasharray:none;stroke-opacity:1"
             id="rect35"
             width="7.9564919"
             height="15.136741"
             x="246.94534"
             y="34.137905" /><path
             style="fill:#333333;fill-opacity:0.1;stroke:none;stroke-width:0.264583px;stroke-linecap:butt;stroke-linejoin:miter;stroke-opacity:1"
             d="m 263.05238,49.662767 9.70303,-20.182321 9.31492,0.776246 -10.67334,21.928867 z"
             id="path35" /><rect
             style="fill:#333333;fill-opacity:0.1;stroke:none;stroke-width:4;stroke-linecap:round;stroke-dasharray:none;stroke-opacity:1"
             id="rect36"
             width="11.449586"
             height="8.5386744"
             x="182.71121"
             y="27.345776" /><rect
             style="fill:#333333;fill-opacity:0.1;stroke:none;stroke-width:4;stroke-linecap:round;stroke-dasharray:none;stroke-opacity:1"
             id="rect37"
             width="12.031768"
             height="8.926796"
             x="182.71121"
             y="50.633072" /><rect
             style="fill:#333333;fill-opacity:0.1;stroke:none;stroke-width:4;stroke-linecap:round;stroke-dasharray:none;stroke-opacity:1"
             id="rect38"
             width="12.41989"
             height="7.5683703"
             x="232.7789"
             y="27.927959" /><rect
             style="fill:#333333;fill-opacity:0.1;stroke:none;stroke-width:4;stroke-linecap:round;stroke-dasharray:none;stroke-opacity:1"
             id="rect39"
             width="12.225829"
             height="6.7921271"
             x="232.7789"
             y="51.215256" /><path
             id="rect8607-4"
             style="fill:#333333;fill-opacity:0.15;fill-rule:evenodd;stroke:#333333;stroke-width:0;stroke-linecap:round;stroke-linejoin:round;stroke-dashoffset:188.976"
             d="m 162.54476,137.90692 4.54191,3.06705 c 1.69199,1.14255 2.14728,3.43318 1.02084,5.13594 l -17.35356,26.23198 c -1.12644,1.70274 -3.39543,2.15373 -5.08742,1.01117 l -4.54192,-3.06704 c -1.69198,-1.14256 -2.14728,-3.43318 -1.02083,-5.13594 l 17.35356,-26.23198 c 1.12645,-1.70274 3.39542,-2.15373 5.08742,-1.01118 z" /></g><text
           xml:space="preserve"
           transform="matrix(0.19290879,0,-0.05646511,0.19245304,355.85503,646.41371)"
           id="text1"
           style="font-style:normal;font-weight:normal;font-size:33.3333px;line-height:1.25;font-family:sans-serif;white-space:pre;shape-inside:url(#rect1-0-3);display:inline;fill:#333333;fill-opacity:0.2;stroke:none;stroke-width:1.45107"><tspan
             x="0"
             y="-147.56558"
             id="tspan4"><tspan
               style="font-family:'Bebas Neue';-inkscape-font-specification:'Bebas Neue'"
               id="tspan3">RkT Mk18                   5.56mm&#10;</tspan></tspan></text></g></g><g
       id="g6"
       transform="matrix(0.44872963,0.17480262,-0.17480262,0.44872963,329.5566,3.1740338)"><path
         id="path1-8-1-5"
         style="color:#000000;fill:none;stroke:#333333;stroke-width:29;stroke-dasharray:none;stroke-opacity:0.1"
         d="m 320.33619,79.423865 a 15.0015,15.0015 0 0 1 14.9996,14.9996 v 12.785275 h 16.95142 a 15.0015,15.0015 0 0 1 5.23947,1.04283 15.0015,15.0015 0 0 1 0.31523,0.0625 15.0015,15.0015 0 0 1 5.56038,-1.10588 h 9.44542 a 15.0015,15.0015 0 0 1 6.04873,1.27331 l 16.02848,7.06262 h 4.59662 a 15.0015,15.0015 0 0 1 10.33115,4.16822 h 50.84082 a 15.0015,15.0015 0 0 1 0.0176,0 c 4.2235,0.005 9.10006,0.70569 13.83172,3.33003 4.73166,2.62435 8.66673,7.24662 10.77195,12.05663 a 15.0015,15.0015 0 0 1 0.43356,1.10536 l 2.46704,7.12514 h 20.07009 l 1.05833,-0.76946 a 15.0015,15.0015 0 0 1 11.3652,-2.64842 l 14.86318,2.56057 a 15.0015,15.0015 0 0 1 12.28917,17.01137 c -4.25947,28.33446 -2.76943,57.27337 0.0977,87.2324 a 15.0015,15.0015 0 0 1 -11.22464,15.96285 l -14.86524,3.79098 a 15.0015,15.0015 0 0 1 -10.15804,-0.99219 l -5.00176,-2.3828 a 15.0015,15.0015 0 0 1 -8.54883,-13.54284 v -1.2051 h -12.81266 a 15.0015,15.0015 0 0 1 -14.06736,-9.81852 15.0015,15.0015 0 0 1 -0.0207,-0.0284 l -26.52138,-72.53304 -45.21687,-0.002 h -36.11925 a 15.0015,15.0015 0 0 1 -1.8097,-0.1788 c 8.15519,13.18754 14.86019,27.90168 17.89244,44.09499 a 15.0015,15.0015 0 0 1 0.23772,0.6599 l 0.30644,1.77354 a 15.0015,15.0015 0 0 1 0.0434,0.26355 l 0.19482,1.27331 a 15.0015,15.0015 0 0 1 0.0357,0.23822 l 0.20464,1.49242 a 15.0015,15.0015 0 0 1 0.0336,0.25993 l 0.1757,1.46089 a 15.0015,15.0015 0 0 1 0.0253,0.22221 l 0.10956,1.05885 a 15.0015,15.0015 0 0 1 0.0212,0.20723 l 0.11162,1.22421 a 15.0015,15.0015 0 0 1 -0.002,0.0238 c 0.003,0.0288 0.008,0.0567 0.0109,0.0858 a 15.0015,15.0015 0 0 1 -0.0641,0.64751 15.0015,15.0015 0 0 1 -9.58598,14.6296 l -73.65028,27.81691 a 15.0015,15.0015 0 0 1 -5.2989,0.96634 h -11.79102 -34.58445 a 15.0015,15.0015 0 0 1 -12.21269,6.39083 h -29.50983 a 15.0015,15.0015 0 0 1 -14.87193,-13.54129 c -0.035,-0.0295 -0.072,-0.0522 -0.1065,-0.0822 -3.3719,-2.91733 -4.8617,-6.95038 -5.2849,-9.45885 -0.7502,-4.44694 -0.1497,-5.88833 0.1385,-6.89054 l -16.3339,-45.91399 c -0.2002,0.0911 -0.5135,0.17834 -1.1565,0.17363 H 96.147977 a 15.0015,15.0015 0 0 1 -13.58,-9.0196 15.0015,15.0015 0 0 1 -4.4804,0.7307 h -11.1135 a 15.0015,15.0015 0 0 1 -14.9996,-14.9996 v -12.50415 a 15.0015,15.0015 0 0 1 14.9996,-15.00011 h 11.1135 a 15.0015,15.0015 0 0 1 4.3419,0.69401 l 1.8345,-15.84916 a 15.0015,15.0015 0 0 1 0.01,-0.10852 l 0.971,-8.32197 a 15.0015,15.0015 0 0 1 5e-4,-10e-4 v -0.0109 a 15.0015,15.0015 0 0 1 0.7623,-2.48202 15.0015,15.0015 0 0 1 0.8294,-2.70113 15.0015,15.0015 0 0 1 1.4304,-1.83916 15.0015,15.0015 0 0 1 1.9027,-2.44275 15.0015,15.0015 0 0 1 3.468,-2.10633 15.0015,15.0015 0 0 1 13.267403,-10.000945 l 2.5508,-0.14986 v -4.32687 a 15.0015,15.0015 0 0 1 15.0001,-14.9996 h 6.9474 a 15.0015,15.0015 0 0 1 15.0001,14.9996 v 12.785275 h 136.92197 a 15.0015,15.0015 0 0 1 12.51189,-8.308545 l 2.55075,-0.14986 v -4.32687 a 15.0015,15.0015 0 0 1 15.00012,-14.9996 z m -6.94635,15.00012 v 18.469165 l -16.67133,0.98082 v 8.33437 H 131.39678 V 94.423985 h -6.9463 v 18.469165 l -16.6708,0.9803 v 8.33489 h -7.6414 v 5.2e-4 l -0.972103,8.33541 h 0.01 l -3.0283,26.15344 v 3.76101 5.2e-4 h -18.0588 v -1.38907 h -11.1141 v 12.50312 h 11.1141 v -1.38958 h 18.0588 v -9.72447 19.40295 h 46.198203 5e-4 24.4435 c 6.5278,0.0478 11.2631,2.52031 14.7934,8.71368 l 17.44077,49.02749 c 1.5356,3.36591 -1.84374,8.15775 0.85576,8.24705 h 40.43422 v 3.33416 h 40.28902 5.1e-4 11.78998 l 73.65029,-27.81484 -0.11111,-1.22421 -0.11058,-1.05885 -0.17519,-1.46038 -0.0103,-0.0744 c -0.004,-0.0302 -0.008,-0.0602 -0.0124,-0.0904 l -0.18241,-1.32705 -0.19637,-1.27279 -0.15968,-0.92604 c -0.0228,-0.13178 -0.0448,-0.2637 -0.0682,-0.39533 l -0.0692,-0.40256 -0.007,-0.0496 -0.002,5.1e-4 v -0.001 l -0.0103,0.004 c -3.19072,-17.44584 -11.55228,-33.61298 -21.69584,-48.0937 -1.85424,-2.64896 -3.06989,-9.59519 1.5937,-14.03222 l 5.2e-4,-5.2e-4 h 7.45898 v -5.55573 h 11.11513 v 5.55573 h 36.11976 v 5.2e-4 l 50.52611,0.001 c 3.66488,-0.001 6.14152,2.6918 7.10034,5.26221 l 28.18278,77.07075 0.0176,0.0481 v 5.2e-4 h 27.81277 v 16.20469 l 5.00125,2.38332 14.86472,-3.7915 c -2.9056,-30.36218 -4.5565,-60.5796 0,-90.89006 l -14.86472,-2.56005 -5.00125,3.63492 h -35.62625 l -5.96139,-17.21549 c -2.04843,-4.68025 -5.80694,-6.39619 -10.87944,-6.40219 h -61.17198 v -4.16719 h -7.7556 l -18.9177,-8.33541 h -9.44697 v 8.33541 h -11.11405 v -8.33592 H 320.3357 V 94.424465 Z M 168.01788,194.59824 c -0.026,0.0243 -0.033,0.046 -0.079,0.0708 l 0.1643,0.35709 c -0.064,-0.19996 -0.091,-0.34012 -0.085,-0.42788 z m 16.3163,44.60089 c -0.059,-0.14161 -0.1107,0.27173 -0.055,0.94516 0,-0.009 0.01,-0.0298 0.01,-0.0387 0.097,-0.50359 0.087,-0.80615 0.045,-0.90641 z m 49.47292,6.65231 h -29.50982 v 9.72447 h 29.50982 z" /><g
         id="g5"
         transform="translate(-424.07908,-440.65589)"><g
           id="g8"
           transform="matrix(-1,0,0,1,1619.4809,632.17943)"
           style="fill:none;fill-opacity:1"><path
             id="path1-8"
             style="fill:#b89a80;fill-opacity:1;stroke:#333333;stroke-width:7;stroke-linecap:butt;stroke-linejoin:round;stroke-dasharray:none;stroke-opacity:1"
             d="m 890.62687,-40.558102 -5.82509,15.50393 0.0675,0.0272 17.94624,7.11446 h 20.01381 l 1.38791,0.20953 -4.32919,12.1443999 -1.44264,0.48541 h -18.82507 l -19.35765,-7.6715599 -17.4186,46.12935 -32.3838,-11.81977 -1.10244,8.28215 c 1.71815,-20.6279201 11.08004,-39.6264201 22.81077,-56.37295 1.85424,-2.64897 3.06985,-9.59516 -1.59376,-14.03221 z"
             sodipodi:nodetypes="cccccccccccccccc" /><path
             id="path1-8-4"
             style="fill:none;fill-opacity:1;stroke:#333333;stroke-width:7;stroke-linecap:butt;stroke-linejoin:round;stroke-dasharray:none;stroke-opacity:1"
             d="m 889.93291,-40.662867 -5.82509,15.50393 0.0675,0.0272 17.94624,7.11446 h 20.01381 l 1.38791,0.20953 -4.32919,12.1444 -1.44264,0.48541 h -18.82507 l -19.35765,-7.67156 -17.4186,46.12935 -32.38379,-11.81977 -1.10244,8.28215 c 1.71815,-20.62792 11.08004,-39.62642 22.81077,-56.37295 1.85424,-2.64897 3.06985,-9.59516 -1.59376,-14.03221 z"
             sodipodi:nodetypes="cccccccccccccccc" /><path
             id="path5-5"
             style="fill:#828282;fill-opacity:1;stroke:#333333;stroke-width:7;stroke-linecap:butt;stroke-linejoin:miter;stroke-dasharray:none;stroke-opacity:1"
             d="m 849.49103,-22.599019 c -9.47136,16.5692134 -17.38141,32.778517 -19.7249,44.059326 l 13.1253,4.64106 c 2.8142,-17.3586623 7.40914,-25.74355741 13.80743,-36.286157 1.60593,-3.352666 1.96845,-10.174071 -7.20783,-12.414229 z" /><rect
             style="fill:#828282;fill-opacity:1;stroke:#333333;stroke-width:7;stroke-linecap:square;stroke-linejoin:round;stroke-dasharray:none;stroke-opacity:1"
             id="rect7-2"
             width="29.509729"
             height="9.7246466"
             x="-991.10596"
             y="54.327488"
             transform="scale(-1,1)" /><rect
             style="fill:#828282;fill-opacity:1;stroke:#333333;stroke-width:7;stroke-linecap:square;stroke-linejoin:round;stroke-dasharray:none;stroke-opacity:1"
             id="rect9-11"
             width="18.060057"
             height="9.7246466"
             x="-1117.3154"
             y="-31.064421"
             transform="scale(-1,1)" /><rect
             style="fill:#828282;fill-opacity:1;stroke:#333333;stroke-width:7;stroke-linecap:square;stroke-linejoin:round;stroke-dasharray:none;stroke-opacity:1"
             id="rect9-7-0"
             width="11.113882"
             height="12.503117"
             x="-1128.4281"
             y="-32.453671"
             transform="scale(-1,1)" /><rect
             style="fill:#b89a80;fill-opacity:1;stroke:#333333;stroke-width:7;stroke-linecap:square;stroke-linejoin:round;stroke-dasharray:none;stroke-opacity:1"
             id="rect15-1"
             width="36.120113"
             height="20.420692"
             x="-832.0014"
             y="-60.979031"
             transform="scale(-1,1)" /><path
             style="fill:#828282;fill-opacity:1;stroke:#333333;stroke-width:7;stroke-linecap:butt;stroke-linejoin:round;stroke-dasharray:none;stroke-opacity:1"
             d="m 832.00142,-69.314452 -9.44679,1e-5 -18.91792,8.33553 28.36471,1e-5 z"
             id="path15-8"
             sodipodi:nodetypes="ccccc" /><rect
             style="fill:#828282;fill-opacity:1;stroke:#333333;stroke-width:7;stroke-linecap:square;stroke-linejoin:round;stroke-dasharray:none;stroke-opacity:1"
             id="rect16-7"
             width="11.113882"
             height="14.864817"
             x="-843.11523"
             y="-60.978909"
             transform="scale(-1,1)" /><path
             id="path16-6"
             style="fill:#b89a80;fill-opacity:1;stroke:#333333;stroke-width:7;stroke-linecap:butt;stroke-linejoin:round;stroke-dasharray:none;stroke-opacity:1"
             d="m 796.16321,-56.811522 -0.28143,16.25342 -50.52629,10e-4 c -3.66488,-10e-4 -6.14128,2.69184 -7.1001,5.26226 l -28.20084,77.11902 5.52933,-15.28137 h -18.4014 l 15.39481,-44.45568 h 18.74454 l 6.16109,-15.28138 h -19.61467 l 5.96151,-17.21541 c 2.04843,-4.68027 5.80665,-6.39638 10.87916,-6.4023 z" /><path
             id="rect17-2"
             style="fill:#b89a80;fill-opacity:1;stroke:#333333;stroke-width:7;stroke-linecap:square;stroke-linejoin:round;stroke-dasharray:none"
             d="m 737.48284,-33.193912 h -55.24097 v 15.28158 h 49.08004 z"
             sodipodi:nodetypes="ccccc" /><path
             id="rect17-2-9-8-0"
             style="fill:#b89a80;fill-opacity:1;stroke:#333333;stroke-width:7;stroke-linecap:square;stroke-linejoin:round;stroke-dasharray:none"
             d="m 715.58351,26.543038 h -33.34164 v 15.28158 h 27.81268 z"
             sodipodi:nodetypes="ccccc" /><path
             style="fill:#828282;fill-opacity:1;stroke:#333333;stroke-width:7;stroke-linecap:butt;stroke-linejoin:round;stroke-dasharray:none;stroke-opacity:1"
             d="m 682.24187,-33.193912 -5.00125,-3.63517 -14.86481,2.56026 c 4.55652,30.3105199 2.90561,60.52788 0,90.89012 l 14.86481,3.79114 5.00125,-2.383 z"
             id="path17-0"
             sodipodi:nodetypes="ccccccc" /><path
             id="rect17-0"
             style="fill:#828282;fill-opacity:1;stroke:#333333;stroke-width:7;stroke-linecap:square;stroke-linejoin:round;stroke-dasharray:none"
             d="m 1070.9493,-78.630152 16.6713,0.98066 v 8.3349 h -16.6713 z" /><rect
             style="fill:none;fill-opacity:1;stroke:#333333;stroke-width:7;stroke-linecap:square;stroke-linejoin:round;stroke-dasharray:none;stroke-opacity:1"
             id="rect18-5"
             width="6.9461746"
             height="27.784704"
             x="-1070.9493"
             y="-97.099304"
             transform="scale(-1,1)" /><path
             id="rect17-7"
             style="fill:#828282;fill-opacity:1;stroke:#333333;stroke-width:7;stroke-linecap:square;stroke-linejoin:round;stroke-dasharray:none"
             d="m 882.01347,-78.630012 16.67125,0.98066 v 8.33491 h -16.67125 z" /><rect
             style="fill:none;fill-opacity:1;stroke:#333333;stroke-width:7;stroke-linecap:square;stroke-linejoin:round;stroke-dasharray:none;stroke-opacity:1"
             id="rect18-5-9"
             width="6.9461746"
             height="27.784704"
             x="-882.01343"
             y="-97.099152"
             transform="scale(-1,1)" /><path
             id="path1-4"
             style="fill:#b89a80;fill-opacity:1;stroke:#333333;stroke-width:7;stroke-linecap:butt;stroke-linejoin:round;stroke-dasharray:none;stroke-opacity:1"
             d="m 914.79856,57.661658 28.52425,-79.93743 c 2.81782,-6.99656 10.49696,-12.62148 17.68503,-12.55067 l 138.24746,10e-4 m 0,1.5e-4 -10e-4,23.16411 h -70.6423 c -6.5278,0.0478 -11.2629,2.5203699 -14.7932,8.7137499 L 996.37764,46.080028 c -1.53557,3.36591 1.8438,8.15819 -0.85562,8.24746 h -40.43417 v 3.33417 l -40.28908,-1e-5" /><rect
             style="fill:none;fill-opacity:1;stroke:#333333;stroke-width:7;stroke-linecap:square;stroke-linejoin:round;stroke-dasharray:none;stroke-opacity:1"
             id="rect14-9"
             width="13.892352"
             height="20.420691"
             x="-904.24164"
             y="-60.979031"
             transform="scale(-1,1)" /><path
             style="fill:#b0937b;fill-opacity:1;stroke:#333333;stroke-width:7;stroke-linecap:butt;stroke-linejoin:round;stroke-dasharray:none;stroke-opacity:1"
             d="m 829.3581,29.846418 73.65044,27.81524 h 11.79002 l 28.52425,-79.93743 c 2.81782,-6.99656 10.49696,-12.62148 17.68503,-12.55067 l 138.24746,10e-4 -3.9934,-34.48915 H 843.11531 v 28.7561 h 7.45922 40.05262 30.65991 c 6.18601,0 9.41125,4.76354 7.66682,9.56789 l -19.04137,53.41604 -0.85185,1.90414 -14.08059,15.78429 c -1.70695,1.74378 -4.35292,3.21298 -6.42141,2.65657 l -58.0964,-21.2062 -0.30577,1.77406 -0.19616,1.27303 -0.20533,1.49206 -0.17504,1.46011 -0.11086,1.05885 z"
             id="path2-2"
             sodipodi:nodetypes="cccccccccccccccccccccccc" /><path
             style="fill:none;fill-opacity:1;stroke:#333333;stroke-width:7;stroke-linecap:butt;stroke-linejoin:round;stroke-dasharray:none;stroke-opacity:1"
             d="M 1095.2619,-69.314452 H 843.11531 v 8.33542 h 253.11859 z"
             id="path6-0"
             sodipodi:nodetypes="ccccc" /><rect
             style="fill:none;fill-opacity:1;stroke:#333333;stroke-width:7;stroke-linecap:square;stroke-linejoin:round;stroke-dasharray:none;stroke-opacity:1"
             id="rect9-1"
             width="55.569408"
             height="9.7246466"
             x="-1099.2554"
             y="-21.339781"
             ry="0"
             transform="scale(-1,1)" /><rect
             style="fill:#828282;fill-opacity:1;stroke:#333333;stroke-width:7;stroke-linecap:square;stroke-linejoin:round;stroke-dasharray:none;stroke-opacity:1"
             id="rect8"
             width="50.012466"
             height="12.503117"
             x="-343.59137"
             y="930.07709"
             ry="6.2515583"
             transform="matrix(-0.33723266,0.94142134,0.94142134,0.33723266,0,0)" /><rect
             style="fill:none;fill-opacity:1;stroke:#333333;stroke-width:7;stroke-linecap:square;stroke-linejoin:round;stroke-dasharray:none;stroke-opacity:1"
             id="rect12-5"
             width="12.503117"
             height="12.503117"
             x="-958.74982"
             y="27.237047"
             ry="6.2515583"
             transform="scale(-1,1)" /><rect
             style="fill:none;fill-opacity:1;stroke:#333333;stroke-width:7;stroke-linecap:square;stroke-linejoin:round;stroke-dasharray:none;stroke-opacity:1"
             id="rect12-1"
             width="12.503117"
             height="12.503117"
             x="-971.38879"
             y="-8.0646954"
             ry="6.2515583"
             transform="scale(-1,1)" /><rect
             style="fill:none;fill-opacity:1;stroke:#333333;stroke-width:7;stroke-linecap:square;stroke-linejoin:round;stroke-dasharray:none;stroke-opacity:1"
             id="rect13-6"
             width="41.677055"
             height="6.9461761"
             x="-1065.6708"
             y="-51.376644"
             ry="3.473088"
             transform="scale(-1,1)" /><rect
             style="fill:none;fill-opacity:1;stroke:#333333;stroke-width:7;stroke-linecap:square;stroke-linejoin:round;stroke-dasharray:none;stroke-opacity:1"
             id="rect13-9-2"
             width="6.9461761"
             height="6.9461761"
             x="-1082.3416"
             y="-51.376644"
             ry="3.473088"
             transform="scale(-1,1)" /><rect
             style="fill:none;fill-opacity:1;stroke:#333333;stroke-width:7;stroke-linecap:square;stroke-linejoin:round;stroke-dasharray:none;stroke-opacity:1"
             id="rect13-9-8"
             width="6.9461761"
             height="6.9461761"
             x="1007.3229"
             y="-51.376644"
             ry="3.473088" /><rect
             style="fill:none;fill-opacity:1;stroke:#333333;stroke-width:7;stroke-linecap:square;stroke-linejoin:round;stroke-dasharray:none;stroke-opacity:1"
             id="rect13-9-8-2"
             width="6.9461761"
             height="6.9461761"
             x="990.65204"
             y="-51.376644"
             ry="3.473088" /></g><path
           id="path1-8-1"
           style="color:#000000;fill:#333333;stroke-linejoin:round;-inkscape-stroke:none"
           d="m 744.41421,520.07976 a 15.0015,15.0015 0 0 1 14.9996,14.9996 v 12.78527 h 16.95142 a 15.0015,15.0015 0 0 1 5.23947,1.04283 15.0015,15.0015 0 0 1 0.31523,0.0625 15.0015,15.0015 0 0 1 5.56038,-1.10588 h 9.44542 a 15.0015,15.0015 0 0 1 6.04873,1.27331 l 16.02848,7.06262 h 4.59662 a 15.0015,15.0015 0 0 1 10.33115,4.16822 h 50.84082 a 15.0015,15.0015 0 0 1 0.0176,0 c 4.2235,0.005 9.10006,0.70569 13.83172,3.33003 4.73166,2.62435 8.66673,7.24662 10.77195,12.05663 a 15.0015,15.0015 0 0 1 0.43356,1.10536 l 2.46704,7.12514 h 20.07009 l 1.05833,-0.76946 a 15.0015,15.0015 0 0 1 11.3652,-2.64842 l 14.86318,2.56057 a 15.0015,15.0015 0 0 1 12.28917,17.01137 c -4.25947,28.33446 -2.76943,57.27337 0.0977,87.2324 a 15.0015,15.0015 0 0 1 -11.22464,15.96285 l -14.86524,3.79098 a 15.0015,15.0015 0 0 1 -10.15804,-0.99219 l -5.00176,-2.3828 a 15.0015,15.0015 0 0 1 -8.54883,-13.54284 v -1.2051 H 909.4259 a 15.0015,15.0015 0 0 1 -14.06736,-9.81852 15.0015,15.0015 0 0 1 -0.0207,-0.0284 l -26.52138,-72.53304 -45.21687,-0.002 h -36.11925 a 15.0015,15.0015 0 0 1 -1.8097,-0.1788 c 8.15519,13.18754 14.86019,27.90168 17.89244,44.09499 a 15.0015,15.0015 0 0 1 0.23772,0.6599 l 0.30644,1.77354 a 15.0015,15.0015 0 0 1 0.0434,0.26355 l 0.19482,1.27331 a 15.0015,15.0015 0 0 1 0.0357,0.23822 l 0.20464,1.49242 a 15.0015,15.0015 0 0 1 0.0336,0.25993 l 0.1757,1.46089 a 15.0015,15.0015 0 0 1 0.0253,0.22221 l 0.10956,1.05885 a 15.0015,15.0015 0 0 1 0.0212,0.20723 l 0.11162,1.22421 a 15.0015,15.0015 0 0 1 -0.002,0.0238 c 0.003,0.0288 0.008,0.0567 0.0109,0.0858 a 15.0015,15.0015 0 0 1 -0.0641,0.64751 15.0015,15.0015 0 0 1 -9.58598,14.6296 l -73.65028,27.81691 a 15.0015,15.0015 0 0 1 -5.2989,0.96634 H 704.6814 670.09695 a 15.0015,15.0015 0 0 1 -12.21269,6.39083 H 628.37443 A 15.0015,15.0015 0 0 1 613.5025,697.69074 c -0.035,-0.0295 -0.072,-0.0522 -0.1065,-0.0822 -3.3719,-2.91733 -4.8617,-6.95038 -5.2849,-9.45885 -0.7502,-4.44694 -0.1497,-5.88833 0.1385,-6.89054 l -16.3339,-45.91399 c -0.2002,0.0911 -0.5135,0.17834 -1.1565,0.17363 H 520.226 a 15.0015,15.0015 0 0 1 -13.58,-9.0196 15.0015,15.0015 0 0 1 -4.4804,0.7307 h -11.1135 a 15.0015,15.0015 0 0 1 -14.9996,-14.9996 v -12.50415 a 15.0015,15.0015 0 0 1 14.9996,-15.00011 h 11.1135 a 15.0015,15.0015 0 0 1 4.3419,0.69401 l 1.8345,-15.84916 a 15.0015,15.0015 0 0 1 0.01,-0.10852 l 0.971,-8.32197 a 15.0015,15.0015 0 0 1 5e-4,-10e-4 v -0.0109 a 15.0015,15.0015 0 0 1 0.7623,-2.48202 15.0015,15.0015 0 0 1 0.8294,-2.70113 15.0015,15.0015 0 0 1 1.4304,-1.83916 15.0015,15.0015 0 0 1 1.9027,-2.44275 15.0015,15.0015 0 0 1 3.468,-2.10633 15.0015,15.0015 0 0 1 13.2674,-10.00094 l 2.5508,-0.14986 v -4.32687 a 15.0015,15.0015 0 0 1 15.0001,-14.9996 h 6.9474 a 15.0015,15.0015 0 0 1 15.0001,14.9996 v 12.78527 h 136.92197 a 15.0015,15.0015 0 0 1 12.51189,-8.30854 l 2.55075,-0.14986 v -4.32687 a 15.0015,15.0015 0 0 1 15.00012,-14.9996 z m -6.94635,15.00012 v 18.46916 l -16.67133,0.98082 v 8.33437 H 555.4748 v -27.78435 h -6.9463 v 18.46916 l -16.6708,0.9803 v 8.33489 h -7.6414 v 5.2e-4 l -0.9721,8.33541 h 0.01 l -3.0283,26.15344 v 3.76101 5.2e-4 h -18.0588 v -1.38907 H 491.053 v 12.50312 h 11.1141 v -1.38958 h 18.0588 v -9.72447 19.40295 h 46.1982 5e-4 24.4435 c 6.5278,0.0478 11.2631,2.52031 14.7934,8.71368 l 17.44077,49.02749 c 1.5356,3.36591 -1.84374,8.15775 0.85576,8.24705 h 40.43422 v 3.33416 h 40.28902 5.1e-4 11.78998 l 73.65029,-27.81484 -0.11111,-1.22421 -0.11058,-1.05885 -0.17519,-1.46038 -0.0103,-0.0744 c -0.004,-0.0302 -0.008,-0.0602 -0.0124,-0.0904 l -0.18241,-1.32705 -0.19637,-1.27279 -0.15968,-0.92604 c -0.0228,-0.13178 -0.0448,-0.2637 -0.0682,-0.39533 l -0.0692,-0.40256 -0.007,-0.0496 -0.002,5.1e-4 v -10e-4 l -0.0103,0.004 c -3.19072,-17.44584 -11.55228,-33.61298 -21.69584,-48.0937 -1.85424,-2.64896 -3.06989,-9.59519 1.5937,-14.03222 l 5.2e-4,-5.2e-4 h 7.45898 v -5.55573 h 11.11513 v 5.55573 h 36.11976 v 5.2e-4 l 50.52611,0.001 c 3.66488,-0.001 6.14152,2.6918 7.10034,5.26221 l 28.18278,77.07075 0.0176,0.0481 v 5.2e-4 h 27.81277 v 16.20469 l 5.00125,2.38332 14.86472,-3.7915 c -2.9056,-30.36218 -4.5565,-60.5796 0,-90.89006 l -14.86472,-2.56005 -5.00125,3.63492 h -35.62625 l -5.96139,-17.21549 c -2.04843,-4.68025 -5.80694,-6.39619 -10.87944,-6.40219 H 823.6001 v -4.16719 h -7.7556 l -18.9177,-8.33541 h -9.44697 v 8.33541 h -11.11405 v -8.33592 H 744.41372 V 535.08036 Z M 592.0959,635.25413 c -0.026,0.0243 -0.033,0.046 -0.079,0.0708 l 0.1643,0.35709 c -0.064,-0.19996 -0.091,-0.34012 -0.085,-0.42788 z m 16.3163,44.60089 c -0.059,-0.14161 -0.1107,0.27173 -0.055,0.94516 0,-0.009 0.01,-0.0298 0.01,-0.0387 0.097,-0.50359 0.087,-0.80615 0.045,-0.90641 z m 49.47292,6.65231 H 628.3753 v 9.72447 h 29.50982 z" /><rect
           style="fill:#333333;fill-opacity:0.1;stroke-width:0;stroke-linecap:round;stroke-dasharray:none"
           id="rect10-8"
           width="36.273518"
           height="10.321175"
           x="-768.90515"
           y="591.62158"
           transform="scale(-1,1)" /><rect
           style="fill:#333333;fill-opacity:0.1;stroke-width:0;stroke-linecap:round;stroke-dasharray:none"
           id="rect11-5"
           width="20.826483"
           height="15.889271"
           x="-958.06555"
           y="594.49915"
           transform="scale(-1,1)" /><rect
           style="fill:#333333;fill-opacity:0.1;stroke-width:0;stroke-linecap:round;stroke-dasharray:none"
           id="rect18-9"
           width="20.040522"
           height="21.205818"
           x="-957.49292"
           y="677.50403"
           transform="scale(-1,1)" /><rect
           style="fill:#333333;fill-opacity:0.1;stroke-width:0;stroke-linecap:round;stroke-dasharray:none"
           id="rect19-4"
           width="9.6637411"
           height="15.281712"
           x="-937.23907"
           y="658.72247"
           transform="scale(-1,1)" /><rect
           style="fill:#333333;fill-opacity:0.1;stroke-width:0;stroke-linecap:round;stroke-dasharray:none"
           id="rect20-39"
           width="9.9500341"
           height="15.28158"
           x="-937.23907"
           y="598.98553"
           transform="scale(-1,1)" /><path
           style="fill:#333333;fill-opacity:0.1;stroke:none;stroke-width:0.264583px;stroke-linecap:butt;stroke-linejoin:miter;stroke-opacity:1"
           d="m 919.70228,674.0041 -5.17306,-15.28182 -9.20033,2.4e-4 5.52898,15.28171 z"
           id="path20" /><path
           style="fill:#333333;fill-opacity:0.1;stroke:none;stroke-width:0.264583px;stroke-linecap:butt;stroke-linejoin:miter;stroke-opacity:1"
           d="m 898.46475,614.26715 -5.17306,-15.28182 -9.20033,2.4e-4 5.52898,15.28171 z"
           id="path20-1" /><rect
           style="fill:#333333;fill-opacity:0.1;stroke:none;stroke-width:0;stroke-linecap:round;stroke-dasharray:none"
           id="rect21-0"
           width="20.170671"
           height="8.9687338"
           x="-920.56824"
           y="649.75372"
           transform="scale(-1,1)" /><rect
           style="fill:#333333;fill-opacity:0.1;stroke:none;stroke-width:0;stroke-linecap:round;stroke-dasharray:none"
           id="rect22-5"
           width="16.137157"
           height="8.7090302"
           x="-906.90363"
           y="614.26654"
           transform="scale(-1,1)" /><rect
           style="fill:#333333;fill-opacity:0.1;stroke:none;stroke-width:0;stroke-linecap:round;stroke-dasharray:none"
           id="rect23-6"
           width="25.285917"
           height="9.1591434"
           x="-901.61267"
           y="589.82605"
           transform="scale(-1,1)" /><rect
           style="fill:#333333;fill-opacity:0.1;stroke:none;stroke-width:0;stroke-linecap:round;stroke-dasharray:none"
           id="rect24-3"
           width="12.282564"
           height="16.254023"
           x="-835.88269"
           y="575.36786"
           transform="scale(-1,1)" /><rect
           style="fill:#333333;fill-opacity:0.1;stroke:none;stroke-width:0;stroke-linecap:round;stroke-dasharray:none"
           id="rect25-6"
           width="12.501637"
           height="20.421246"
           x="-823.6001"
           y="571.20062"
           transform="scale(-1,1)" /><rect
           style="fill:#333333;fill-opacity:0.1;stroke:none;stroke-width:0;stroke-linecap:round;stroke-dasharray:none"
           id="rect26-3"
           width="12.775549"
           height="20.420462"
           x="-800.25537"
           y="571.20062"
           transform="scale(-1,1)" /><rect
           style="fill:#333333;fill-opacity:0.1;stroke:none;stroke-width:0;stroke-linecap:round;stroke-dasharray:none"
           id="rect27-0"
           width="11.113831"
           height="3.812952"
           x="-787.47955"
           y="580.60187"
           transform="scale(-1,1)" /><rect
           style="fill:#333333;fill-opacity:0.1;stroke:none;stroke-width:0;stroke-linecap:round;stroke-dasharray:none"
           id="rect28-8"
           width="11.114202"
           height="6.0422578"
           x="-787.47986"
           y="571.20062"
           transform="scale(-1,1)" /><path
           id="rect29-4"
           style="fill:#333333;fill-opacity:0.1;stroke:none;stroke-width:0;stroke-linecap:round;stroke-dasharray:none"
           d="m 774.59945,571.20032 c 9.1e-4,0 0.002,5.2e-4 0.003,5.2e-4 h 1.76372 v 1.76579 5.60482 12.94495 H 764.86661 V 580.33775 H 525.0135 c -0.9784,0 -1.7658,-0.78786 -1.7658,-1.7663 v -5.60482 c 0,-0.97845 0.7874,-1.76631 1.7658,-1.76631 z" /><rect
           style="fill:#333333;fill-opacity:0.1;stroke:none;stroke-width:0;stroke-linecap:round;stroke-dasharray:none"
           id="rect30-0"
           width="9.3040791"
           height="9.7244701"
           x="-657.88513"
           y="686.50732"
           transform="scale(-1,1)" /><rect
           style="fill:#333333;fill-opacity:0.1;stroke:none;stroke-width:0;stroke-linecap:round;stroke-dasharray:none"
           id="rect31-4"
           width="8.9470215"
           height="9.7248821"
           x="-637.32196"
           y="686.5069"
           transform="scale(-1,1)" /><rect
           style="fill:#333333;fill-opacity:0.1;stroke:none;stroke-width:0;stroke-linecap:round;stroke-dasharray:none"
           id="rect32-64"
           width="76.599754"
           height="7.3770318"
           x="-701.47473"
           y="679.66962"
           transform="scale(-1,1)" /><rect
           style="fill:#333333;fill-opacity:0.1;stroke:none;stroke-width:0;stroke-linecap:round;stroke-dasharray:none"
           id="rect33-6"
           width="10.756369"
           height="8.1055441"
           x="-530.98224"
           y="599.23413"
           transform="scale(-1,1)" /><rect
           style="fill:#333333;fill-opacity:0.1;stroke:none;stroke-width:0;stroke-linecap:round;stroke-dasharray:none"
           id="rect34-4"
           width="10.756677"
           height="13.22464"
           x="-530.98224"
           y="607.33966"
           transform="scale(-1,1)" /><rect
           style="fill:#333333;fill-opacity:0.1;stroke:none;stroke-width:0;stroke-linecap:round;stroke-dasharray:none"
           id="rect35-3"
           width="10.569391"
           height="9.6784306"
           x="-575.7951"
           y="610.8396"
           transform="scale(-1,1)" /><rect
           style="fill:#333333;fill-opacity:0.1;stroke:none;stroke-width:0;stroke-linecap:round;stroke-dasharray:none"
           id="rect36-8"
           width="6.1558967"
           height="7.5527091"
           x="-520.22601"
           y="603.28687"
           transform="scale(-1,1)" /><rect
           style="fill:#333333;fill-opacity:0.1;stroke:none;stroke-width:0;stroke-linecap:round;stroke-dasharray:none"
           id="rect37-4"
           width="5.0934849"
           height="9.7244701"
           x="-508.77679"
           y="601.11511"
           transform="scale(-1,1)" /><rect
           style="fill:#333333;fill-opacity:0.1;stroke:none;stroke-width:0;stroke-linecap:round;stroke-dasharray:none"
           id="rect38-0"
           width="7.4904194"
           height="3.499959"
           x="-499.9881"
           y="607.33966"
           transform="scale(-1,1)" /><rect
           style="fill:#333333;fill-opacity:0.1;stroke:none;stroke-width:0;stroke-linecap:round;stroke-dasharray:none"
           id="rect39-0"
           width="11.112671"
           height="3.5657818"
           x="-502.16559"
           y="601.11499"
           transform="scale(-1,1)" /><path
           style="fill:#333333;fill-opacity:0.1;stroke:none;stroke-width:0.264583px;stroke-linecap:butt;stroke-linejoin:miter;stroke-opacity:1"
           d="m 530.9822,599.23413 4.7428,-36.36914 -11.5087,-2.4e-4 -3.9907,34.48939 z"
           id="path39" /><rect
           style="fill:#333333;fill-opacity:0.1;stroke:none;stroke-width:0;stroke-linecap:round;stroke-dasharray:none"
           id="rect40"
           width="8.97367"
           height="8.33564"
           x="-773.84009"
           y="562.86499"
           transform="scale(-1,1)" /><rect
           style="fill:#333333;fill-opacity:0.1;stroke:none;stroke-width:0;stroke-linecap:round;stroke-dasharray:none"
           id="rect41"
           width="11.447944"
           height="8.4941139"
           x="-642.01184"
           y="660.77142"
           transform="scale(-1,1)" /><rect
           style="fill:#333333;fill-opacity:0.1;stroke:none;stroke-width:0;stroke-linecap:round;stroke-dasharray:none"
           id="rect42"
           width="13.932142"
           height="7.8899498"
           x="-632.2702"
           y="626.35297"
           transform="scale(-1,1)" /><path
           style="fill:#333333;fill-opacity:0.1;stroke:none;stroke-width:0.264583px;stroke-linecap:butt;stroke-linejoin:miter;stroke-opacity:1"
           d="m 711.14204,627.00149 -4.48353,-12.73457 -11.3948,0.20954 4.78403,13.42038 z"
           id="path42"
           sodipodi:nodetypes="ccccc" /><path
           style="fill:#333333;fill-opacity:0.1;stroke:none;stroke-width:0.264583px;stroke-linecap:butt;stroke-linejoin:miter;stroke-opacity:1"
           d="m 728.30323,674.77201 -25.55732,9.64223 5.2329,6.65279 82.08854,-29.65322 -1.00613,-7.41892 z"
           id="path43" /><rect
           style="fill:#333333;fill-opacity:0.1;stroke:none;stroke-width:0;stroke-linecap:round;stroke-dasharray:none"
           id="rect43-5"
           width="13.419123"
           height="7.8303518"
           x="-464.55832"
           y="869.0202"
           transform="matrix(-0.91683432,0.39926786,0.39926786,0.91683432,0,0)" /><path
           style="fill:#333333;fill-opacity:0.1;stroke:none;stroke-width:0.264583px;stroke-linecap:butt;stroke-linejoin:miter;stroke-opacity:1"
           d="m 789.71482,653.63974 -32.38399,11.81955 -3.68078,-9.7477 37.5798,-13.71494 z"
           id="path44" /><path
           id="rect44"
           style="fill:#333333;fill-opacity:0.1;stroke-width:0;stroke-linecap:round"
           d="M 665.25088,597.30779 H 521.9922 c -0.9785,0 -1.7662,0.58403 -1.7662,1.3095 v 7.41285 c 0,0.72547 0.7877,1.30951 1.7662,1.30951 h 152.97591 c 0.97845,0 1.76615,-0.58404 1.76615,-1.30951 v -1.98306 c 0,0 -11.23459,-6.95498 -11.48338,-6.73929 z"
           sodipodi:nodetypes="csssssscc" /><text
           xml:space="preserve"
           transform="matrix(-0.31826109,0,0.09315618,0.31750919,676.86925,657.84443)"
           id="text1-9"
           style="font-style:normal;font-weight:normal;font-size:33.3333px;line-height:1.25;font-family:sans-serif;white-space:pre;shape-inside:url(#rect1-0-9);display:inline;fill:#333333;fill-opacity:0.15;stroke:none;stroke-width:0.87954"><tspan
             x="0"
             y="-147.56558"
             id="tspan6"><tspan
               style="font-family:'Bebas Neue';-inkscape-font-specification:'Bebas Neue'"
               id="tspan5">RkT VKR      .45&#10;</tspan></tspan></text></g></g></g></svg>
