<?xml version="1.0" encoding="UTF-8" standalone="no"?>
<!-- Created with Inkscape (http://www.inkscape.org/) -->

<svg
   width="261.99399mm"
   height="250mm"
   viewBox="0 0 261.99398 250"
   version="1.1"
   id="svg5"
   inkscape:version="1.3 (0e150ed, 2023-07-21)"
   sodipodi:docname="fnx_loot.svg"
   xml:space="preserve"
   xmlns:inkscape="http://www.inkscape.org/namespaces/inkscape"
   xmlns:sodipodi="http://sodipodi.sourceforge.net/DTD/sodipodi-0.dtd"
   xmlns="http://www.w3.org/2000/svg"
   xmlns:svg="http://www.w3.org/2000/svg"><sodipodi:namedview
     id="namedview7"
     pagecolor="#ffffff"
     bordercolor="#666666"
     borderopacity="1.0"
     inkscape:pageshadow="2"
     inkscape:pageopacity="0.0"
     inkscape:pagecheckerboard="0"
     inkscape:document-units="mm"
     showgrid="false"
     inkscape:zoom="0.16799134"
     inkscape:cx="-11.905376"
     inkscape:cy="-372.043"
     inkscape:window-width="1440"
     inkscape:window-height="784"
     inkscape:window-x="0"
     inkscape:window-y="25"
     inkscape:window-maximized="1"
     inkscape:current-layer="layer1"
     inkscape:showpageshadow="2"
     inkscape:deskcolor="#d1d1d1" /><defs
     id="defs2"><clipPath
       clipPathUnits="userSpaceOnUse"
       id="clipPath54"><path
         id="path54"
         style="stroke-width:0.0999999;stroke-linecap:square;paint-order:markers fill stroke;stop-color:#000000"
         d="m 1691.1994,-792.32001 h 1634.8919 v 92.82806 H 1691.1994 Z" /></clipPath><clipPath
       clipPathUnits="userSpaceOnUse"
       id="clipPath15"><rect
         style="fill:none;stroke:#000000;stroke-linecap:butt;stroke-linejoin:bevel;paint-order:stroke markers fill;stop-color:#000000"
         id="rect15-7"
         width="45.034248"
         height="38.955639"
         x="262.48285"
         y="121.00073" /></clipPath><inkscape:path-effect
       effect="fill_between_many"
       method="originald"
       linkedpaths="#path34,0,1"
       id="path-effect34"
       is_visible="true"
       lpeversion="0"
       join="true"
       close="true"
       autoreverse="true" /></defs><g
     inkscape:label="Layer 1"
     inkscape:groupmode="layer"
     id="layer1"><g
       id="g9"
       transform="translate(-229.5066,-217.82104)"><rect
         style="fill:none;fill-opacity:1;stroke:#333333;stroke-width:30;stroke-linecap:round;stroke-linejoin:round;stroke-dasharray:none;stroke-opacity:1"
         id="rect9-7"
         width="45.324673"
         height="33.219322"
         x="253.96057"
         y="388.83734"
         ry="7.362556" /><path
         id="path1-51"
         style="fill:none;fill-opacity:1;stroke:#333333;stroke-width:30;stroke-linecap:butt;stroke-linejoin:round;stroke-dasharray:none;stroke-opacity:1"
         d="m 258.23251,288.58545 c -1.62096,4.6629 -0.82269,7.96715 4.2292,9.35395 37.01798,9.39092 -6.88092,54.38274 -17.84181,99.51744 -0.62892,4.36227 2.68127,10.19551 8.22224,10.12858 h 49.47915 c 3.85018,-1.04131 6.10666,-6.03572 8.50232,-9.22993 -4.44217,-9.67893 -2.93453,-16.57758 8.02116,-19.40448 -3.62899,-7.96727 -2.72834,-16.01854 7.38541,-18.91553 -3.74904,-6.8247 -0.25891,-11.4502 1.62082,-15.76144 h 51.88882 c 0.006,10e-6 0.0117,10e-6 0.0176,0 4.82379,-0.0147 8.86625,-2.37409 11.56053,-5.32629 2.6943,-2.95221 4.41301,-6.53225 4.42196,-10.65982 v -0.002 -0.002 -0.002 -0.002 -5.1e-4 -0.002 -0.002 -0.002 -0.002 -10e-4 -21.90874 h 80.76096 l -0.11785,-17.77623 z m 96.40186,17.77979 h 29.10572 v 21.89737 c -5e-4,0.23099 -0.41484,1.64205 -1.28519,2.59571 -0.87034,0.95366 -1.82506,1.41316 -2.7342,1.41593 h -47.40589 c 2.78629,-6.00349 6.08282,-11.89534 8.66252,-17.48937 3.73011,-5.9367 7.73425,-8.42058 13.65704,-8.41964 z"
         sodipodi:nodetypes="cccccccccccsscccccccccccccccccscccc" /><path
         id="rect5-2"
         style="fill:none;fill-opacity:1;stroke:#333333;stroke-width:30;stroke-linecap:round;stroke-linejoin:round;stroke-dasharray:none;stroke-opacity:1"
         d="m 261.50104,263.58542 v 25.00003 h 214.9998 v -25.00003 h -90.6446 v 3.50005 H 345.8561 v -3.50005 z" /></g><g
       id="g10"
       transform="translate(-280.1649,5.7642379)"><rect
         style="fill:#7a7a7a;fill-opacity:1;stroke:#333333;stroke-width:7;stroke-linecap:round;stroke-linejoin:round;stroke-dasharray:none;stroke-opacity:1"
         id="rect9"
         width="45.324673"
         height="33.219322"
         x="304.60431"
         y="165.25206"
         ry="7.362556" /><path
         id="path1"
         style="fill:#c7a588;fill-opacity:1;stroke:#333333;stroke-width:7;stroke-linecap:butt;stroke-linejoin:round;stroke-dasharray:none;stroke-opacity:1"
         d="m 308.87624,65.000167 c -1.62096,4.6629 -0.82269,7.967149 4.2292,9.353951 37.01798,9.390918 -6.88092,54.382742 -17.84181,99.517442 -0.62892,4.36227 2.68127,10.19551 8.22224,10.12858 h 49.47915 c 3.85018,-1.04131 6.10666,-6.03572 8.50232,-9.22993 -4.44217,-9.67893 -2.93453,-16.57758 8.02116,-19.40448 -3.62899,-7.96727 -2.72834,-16.01854 7.38541,-18.91553 -3.74904,-6.8247 -0.25891,-11.4502 1.62082,-15.76144 h 51.88882 c 0.006,1e-5 0.0117,1e-5 0.0176,0 4.82379,-0.0147 8.86625,-2.37409 11.56053,-5.32629 2.6943,-2.95221 4.41301,-6.53225 4.42196,-10.65982 v -0.002 -0.002 -0.002 -0.002 -5.1e-4 -0.002 -0.002 -0.002 -0.002 -10e-4 V 82.7764 H 527.1446 L 527.02675,65.000167 Z M 405.2781,82.77996 h 27.1058 l -3e-4,19.89698 c -5e-4,0.23099 -0.41485,1.64205 -1.28519,2.59571 -0.87034,0.95366 -1.82507,1.41316 -2.73421,1.41593 l -44.1993,1.8e-4 c 2.78629,-6.00349 4.87646,-9.895132 7.45616,-15.489159 3.73011,-5.9367 7.73425,-8.420578 13.65704,-8.419641 z"
         sodipodi:nodetypes="cccccccccccsscccccccccccccccccscccc" /><path
         id="path1-5"
         style="fill:#333333;fill-opacity:0.1;stroke:none;stroke-width:7;stroke-linecap:butt;stroke-linejoin:round;stroke-dasharray:none;stroke-opacity:1"
         d="m 308.87624,65.00017 c -1.62096,4.6629 -0.82269,7.96716 4.2292,9.35396 37.01794,9.39091 -6.88093,54.38278 -17.84181,99.51744 -0.62891,4.36226 2.68128,10.19551 8.22224,10.12858 h 49.47915 c 3.85018,-1.04131 6.10667,-6.03572 8.50233,-9.22993 -4.44217,-9.67892 -2.93447,-16.5776 8.02121,-19.4045 -3.62899,-7.96726 -2.72814,-16.01866 7.3856,-18.91564 -3.74904,-6.8247 -0.25916,-11.45008 1.62057,-15.76132 h 51.88882 c 0.006,1e-5 0.0117,1e-5 0.0176,0 4.82379,-0.0147 8.86626,-2.37409 11.56054,-5.32629 2.69429,-2.9522 4.413,-6.53224 4.42195,-10.65981 v -0.002 -0.002 -0.002 -0.002 -5.1e-4 -0.002 -0.002 -0.002 -0.002 -0.001 -21.90874 h 80.76096 l -0.11782,-17.77618 z m 23.85901,10.00043 h 63.30828 c -5.18344,2.26006 -9.8466,6.04639 -12.88293,10.87892 -0.22842,0.36402 -0.43314,0.74239 -0.61289,1.13275 -2.34121,5.07686 -5.65023,10.99735 -8.6527,17.46663 -0.98961,2.43079 -0.98405,5.15318 0.0155,7.5799 -1.99865,0.99092 -3.60862,2.62162 -4.57388,4.63279 -0.55729,1.27818 -2.34794,4.0861 -3.45508,8.50233 -0.45726,1.82394 -0.58031,3.99577 -0.45321,6.2575 -3.24672,2.60013 -5.80067,5.8738 -6.95099,9.6175 -0.93847,3.0542 -1.06708,6.02368 -0.76585,8.88266 -3.30375,2.30749 -6.01409,5.309 -7.40213,9.14053 -1.80076,4.97077 -1.35112,9.77255 0.008,14.30093 -0.0999,0.14591 -0.32477,0.48336 -0.41599,0.6072 h -44.26965 c 5.32148,-19.70845 17.8272,-40.82333 25.7483,-59.3633 4.10944,-9.6185 7.4532,-18.68628 5.99808,-28.57397 -0.56305,-3.82597 -2.14548,-7.7399 -4.64261,-11.06237 z m 72.54286,7.77937 h 29.10571 v 21.89737 c -5e-4,0.23099 -0.41484,1.64205 -1.28519,2.59571 -0.87034,0.95366 -1.82506,1.41316 -2.7342,1.41593 h -47.40589 c 2.78629,-6.00348 6.08282,-11.89535 8.66252,-17.48937 3.73011,-5.9367 7.73425,-8.42058 13.65705,-8.41964 z"
         sodipodi:nodetypes="cccccccccccsscccccccccccccccccccccscscscccssccccscccc" /><rect
         style="fill:#333333;fill-opacity:0.15;stroke:#333333;stroke-width:7;stroke-linecap:round;stroke-linejoin:round;stroke-dasharray:none;stroke-opacity:1"
         id="rect1"
         width="72.032661"
         height="17.779999"
         x="455.11197"
         y="65" /><path
         style="fill:none;stroke:#333333;stroke-width:7;stroke-linecap:butt;stroke-linejoin:miter;stroke-dasharray:none;stroke-opacity:1"
         d="m 324.75916,104.1605 c 2.30371,-8.09307 30.24085,-5.166222 15.45964,23.57079 -10.25349,18.04097 -16.16789,31.50396 -23.0207,56.26885"
         id="path4"
         sodipodi:nodetypes="ccc" /><path
         style="fill:#333333;fill-opacity:0.15;stroke:none;stroke-width:0.264583px;stroke-linecap:butt;stroke-linejoin:miter;stroke-opacity:1"
         d="m 298.51164,182.17653 18.68647,1.82361 10.87522,-32.17947 12.14546,-24.08938 3.54941,-16.13604 -9.64875,-8.52059 -9.36029,1.08584 -28.14254,64.68029 z"
         id="path5" /><path
         id="rect5"
         style="fill:#aa8a70;fill-opacity:1;stroke:#333333;stroke-width:7;stroke-linecap:round;stroke-linejoin:round;stroke-dasharray:none;stroke-opacity:1"
         d="m 312.14477,40.000142 v 25.000025 h 214.9998 V 40.000142 h -90.6446 v 3.500045 h -40.00014 v -3.500045 z" /><rect
         style="fill:#7a7a7a;fill-opacity:1;stroke:#333333;stroke-width:7;stroke-linecap:round;stroke-linejoin:round;stroke-dasharray:none;stroke-opacity:1"
         id="rect6"
         width="40"
         height="12"
         x="396.49982"
         y="43.500187" /><rect
         style="fill:none;fill-opacity:1;stroke:#333333;stroke-width:7;stroke-linecap:round;stroke-linejoin:round;stroke-dasharray:none;stroke-opacity:1"
         id="rect7"
         width="10"
         height="24.999981"
         x="338.5"
         y="40.000187" /><rect
         style="fill:none;fill-opacity:1;stroke:#333333;stroke-width:7;stroke-linecap:round;stroke-linejoin:round;stroke-dasharray:none;stroke-opacity:1"
         id="rect7-0"
         width="10"
         height="24.999981"
         x="328.5"
         y="40.000187" /><rect
         style="fill:none;fill-opacity:1;stroke:#333333;stroke-width:7;stroke-linecap:round;stroke-linejoin:round;stroke-dasharray:none;stroke-opacity:1"
         id="rect7-3"
         width="10"
         height="24.999981"
         x="348.5"
         y="40.000187" /><rect
         style="fill:none;fill-opacity:1;stroke:#333333;stroke-width:7;stroke-linecap:round;stroke-linejoin:round;stroke-dasharray:none;stroke-opacity:1"
         id="rect7-4"
         width="10"
         height="24.999981"
         x="358.5"
         y="40.000187" /><rect
         style="fill:#333333;fill-opacity:0.15;stroke:#333333;stroke-width:0;stroke-linecap:round;stroke-linejoin:round;stroke-dasharray:none;stroke-opacity:1"
         id="rect8"
         width="12"
         height="12"
         x="396.49982"
         y="43.500187" /><rect
         style="fill:#333333;fill-opacity:0.15;stroke:#333333;stroke-width:0;stroke-linecap:round;stroke-linejoin:round;stroke-dasharray:none;stroke-opacity:1"
         id="rect8-2"
         width="12"
         height="12"
         x="304.60431"
         y="186.47137" /><rect
         style="fill:#333333;fill-opacity:0.15;stroke:#333333;stroke-width:0;stroke-linecap:round;stroke-linejoin:round;stroke-dasharray:none;stroke-opacity:1"
         id="rect8-2-2"
         width="12"
         height="12"
         x="337.92899"
         y="186.47137" /><rect
         style="fill:#333333;fill-opacity:0.15;stroke:#333333;stroke-width:0;stroke-linecap:round;stroke-linejoin:round;stroke-dasharray:none;stroke-opacity:1"
         id="rect8-1"
         width="16.095268"
         height="24.500011"
         x="312.14478"
         y="40.500156" /><rect
         style="fill:#333333;fill-opacity:0.15;stroke:#333333;stroke-width:0;stroke-linecap:round;stroke-linejoin:round;stroke-dasharray:none;stroke-opacity:1"
         id="rect8-1-3"
         width="16.095268"
         height="24.500011"
         x="511.04929"
         y="40.250149" /><rect
         style="fill:#333333;fill-opacity:0.15;stroke:#333333;stroke-width:0;stroke-linecap:round;stroke-linejoin:round;stroke-dasharray:none;stroke-opacity:1"
         id="rect8-1-3-1"
         width="16.095268"
         height="18.029842"
         x="511.04938"
         y="64.75016" /><rect
         style="fill:#333333;fill-opacity:0.15;stroke:#333333;stroke-width:0;stroke-linecap:round;stroke-linejoin:round;stroke-dasharray:none;stroke-opacity:1"
         id="rect8-1-3-1-0"
         width="16.095268"
         height="18.029842"
         x="455.11197"
         y="64.875076" /><rect
         style="fill:#333333;fill-opacity:0.15;stroke:#333333;stroke-width:0;stroke-linecap:round;stroke-linejoin:round;stroke-dasharray:none;stroke-opacity:1"
         id="rect8-0"
         width="12"
         height="12"
         x="424.49982"
         y="43.500187" /><rect
         style="fill:#7d7d7d;fill-opacity:1;stroke:#333333;stroke-width:7;stroke-linecap:round;stroke-linejoin:round;stroke-miterlimit:4;stroke-dasharray:none;stroke-dashoffset:831.496;stroke-opacity:1"
         id="rect47612-5-7-4"
         width="12"
         height="10"
         x="370.96509"
         y="-59.581116"
         transform="rotate(24.301195)" /></g></g></svg>
